<?xml version="1.0" encoding="UTF-8" standalone="no"?>
<svg
   xmlns:dc="http://purl.org/dc/elements/1.1/"
   xmlns:cc="http://creativecommons.org/ns#"
   xmlns:rdf="http://www.w3.org/1999/02/22-rdf-syntax-ns#"
   xmlns:svg="http://www.w3.org/2000/svg"
   xmlns="http://www.w3.org/2000/svg"
   xmlns:sodipodi="http://sodipodi.sourceforge.net/DTD/sodipodi-0.dtd"
   xmlns:inkscape="http://www.inkscape.org/namespaces/inkscape"
   width="800"
   height="1200"
   viewBox="0 0 800 1200"
   version="1.1"
   xml:space="preserve"
   style="clip-rule:evenodd;fill-rule:evenodd;stroke-linejoin:round;stroke-miterlimit:1.41421"
   id="svg78"
   sodipodi:docname="codegenr.svg"
   inkscape:version="1.0.2 (e86c870879, 2021-01-15)"><metadata
   id="metadata82"><rdf:RDF><cc:Work
       rdf:about=""><dc:format>image/svg+xml</dc:format><dc:type
         rdf:resource="http://purl.org/dc/dcmitype/StillImage" /><dc:title /></cc:Work></rdf:RDF></metadata><sodipodi:namedview
   pagecolor="#ffffff"
   bordercolor="#666666"
   borderopacity="1"
   objecttolerance="10"
   gridtolerance="10"
   guidetolerance="10"
   inkscape:pageopacity="0"
   inkscape:pageshadow="2"
   inkscape:window-width="2503"
   inkscape:window-height="1016"
   id="namedview80"
   showgrid="false"
   inkscape:zoom="0.75247946"
   inkscape:cx="599.06053"
   inkscape:cy="502.91318"
   inkscape:window-x="1337"
   inkscape:window-y="27"
   inkscape:window-maximized="1"
   inkscape:current-layer="svg78"
   inkscape:document-rotation="0" />
    <path
   style="fill:none;stroke:#000000;stroke-width:3;stroke-linecap:butt;stroke-linejoin:miter;stroke-miterlimit:1.41421;stroke-dasharray:none;stroke-opacity:1;marker-end:url(#marker7609)"
   d="M 471.91697,199.01061 433.45694,366.82703"
   id="path1341"
   sodipodi:nodetypes="cc" /><g
   id="g1315"
   transform="matrix(1.2525754,0,0,1.2525754,-286.10451,53.097331)"><g
     id="g1084"
     transform="translate(-22.1917,136.19096)"><g
       transform="matrix(0.33478882,0,0,0.33478882,571.71487,324.02744)"
       id="g4">
            <path
   d="m 0,-279.559 c -121.238,0 -231.39,14.576 -312.939,38.329 V -38.329 C -231.39,-14.575 -121.238,0 0,0 138.76,0 262.987,-19.092 346.431,-49.186 V -230.37 C 262.987,-260.465 138.76,-279.559 0,-279.559"
   style="fill:#a52b00;fill-rule:nonzero"
   id="path2" />
        </g><g
       transform="matrix(0.33478882,0,0,0.33478882,729.53633,303.47878)"
       id="g8">
            <path
   d="m 0,-53.32 -14.211,-29.441 c 0.073,-1.118 0.131,-2.237 0.131,-3.36 0,-33.375 -34.706,-64.135 -93.097,-88.762 V 2.643 c 27.245,-11.492 49.348,-24.317 65.156,-38.125 -4.652,18.707 -20.564,56.553 -33.25,83.168 -20.85,38.066 -28.4,71.203 -27.432,72.844 0.617,1.033 7.73,-9.94 18.219,-27.721 C -60.074,58.028 -13.82,-8.373 -4.575,-25.287 5.897,-44.461 0,-53.32 0,-53.32"
   style="fill:#a52b00;fill-rule:nonzero"
   id="path6" />
        </g><g
       transform="matrix(0.33478882,0,0,0.33478882,421.63574,308.76141)"
       id="g12">
            <path
   d="m 0,-99.954 c 0,6.428 1.293,12.76 3.788,18.969 l -8.511,15.15 c 0,0 -6.818,8.846 5.188,27.508 10.59,16.455 63.635,80.867 91.632,114.598 12.026,17.293 20.179,27.945 20.893,26.916 1.124,-1.633 -7.476,-34.1 -31.359,-71.141 -11.144,-19.895 -24.454,-46.252 -32.442,-65.721 22.303,14.116 51.483,26.92 86.152,37.94 V -204.17 C 51.797,-177.622 0,-140.737 0,-99.954"
   style="fill:#a52b00;fill-rule:nonzero"
   id="path10" />
        </g><g
       transform="matrix(-22.032352,-251.83049,-251.83049,22.032352,579.87133,377.35662)"
       id="g16">
            <path
   d="M 0.991,-0.034 0.933,0.008 c 0,0.006 0,0.012 0,0.018 L 0.99,0.069 C 0.996,0.073 0.999,0.08 0.998,0.087 0.997,0.094 0.992,0.1 0.986,0.103 L 0.92,0.133 C 0.919,0.139 0.918,0.145 0.916,0.15 L 0.964,0.203 C 0.968,0.208 0.97,0.216 0.968,0.222 0.965,0.229 0.96,0.234 0.953,0.236 L 0.882,0.254 C 0.88,0.259 0.877,0.264 0.875,0.27 L 0.91,0.33 c 0.004,0.006 0.004,0.014 0,0.02 C 0.907,0.356 0.9,0.36 0.893,0.361 L 0.82,0.365 C 0.817,0.369 0.813,0.374 0.81,0.379 L 0.832,0.445 C 0.835,0.452 0.833,0.459 0.828,0.465 0.824,0.47 0.816,0.473 0.809,0.472 L 0.737,0.462 C 0.733,0.466 0.729,0.47 0.724,0.474 l 0.009,0.07 C 0.734,0.551 0.731,0.558 0.725,0.562 0.719,0.566 0.711,0.568 0.704,0.565 L 0.636,0.542 C 0.631,0.546 0.626,0.549 0.621,0.552 L 0.615,0.621 c 0,0.008 -0.005,0.014 -0.011,0.017 -0.007,0.003 -0.015,0.003 -0.021,0 L 0.521,0.602 C 0.52,0.603 0.519,0.603 0.518,0.603 L 0.406,0.729 c 0,0 -0.012,0.018 -0.047,-0.004 C 0.329,0.705 0.206,0.599 0.141,0.543 0.109,0.52 0.089,0.504 0.09,0.502 0.093,0.499 0.149,0.509 0.217,0.554 0.278,0.588 0.371,0.631 0.38,0.619 c 0,0 0.016,-0.015 0.026,-0.044 0,0 0,0 0,0 10e-4,0.001 10e-4,0.001 0,0 0,0 -0.315,-0.551 -0.101,-1.106 C 0.311,-0.593 0.275,-0.627 0.275,-0.627 0.266,-0.639 0.178,-0.598 0.12,-0.566 0.055,-0.523 0.002,-0.513 0,-0.516 -0.001,-0.518 0.018,-0.533 0.049,-0.555 0.11,-0.608 0.227,-0.707 0.256,-0.726 0.289,-0.748 0.301,-0.73 0.301,-0.73 l 0.101,0.115 c 0.004,0.001 0.008,0.002 0.013,0.002 L 0.47,-0.658 c 0.005,-0.005 0.013,-0.006 0.02,-0.004 0.007,0.002 0.012,0.007 0.014,0.014 l 0.018,0.068 c 0.005,0.002 0.011,0.004 0.016,0.006 l 0.064,-0.034 c 0.006,-0.004 0.014,-0.004 0.021,0 0.006,0.003 0.01,0.009 0.01,0.016 l 0.004,0.07 c 0.005,0.003 0.01,0.007 0.015,0.01 l 0.069,-0.022 c 0.007,-0.002 0.015,-0.001 0.02,0.003 0.006,0.005 0.009,0.012 0.008,0.019 l -0.011,0.069 c 0.004,0.004 0.008,0.008 0.013,0.012 l 0.072,-0.008 c 0.007,-0.001 0.014,0.002 0.019,0.007 0.005,0.006 0.006,0.013 0.003,0.02 l -0.024,0.065 c 0.003,0.005 0.007,0.01 0.01,0.015 l 0.072,0.005 c 0.008,0 0.014,0.005 0.017,0.011 0.004,0.006 0.004,0.014 0,0.02 l -0.037,0.06 c 0.002,0.005 0.004,0.01 0.006,0.016 l 0.07,0.018 c 0.007,0.002 0.013,0.007 0.015,0.014 0.002,0.007 0,0.014 -0.005,0.02 L 0.92,-0.116 c 0.001,0.005 0.003,0.011 0.004,0.017 l 0.064,0.031 C 0.995,-0.065 0.999,-0.059 1,-0.052 1.001,-0.045 0.997,-0.038 0.991,-0.034 Z M 0.406,0.575 c 0,0 0,0 0,0 0,0 0,0 0,0 z"
   style="fill:url(#_Linear1);fill-rule:nonzero"
   id="path14" />
        </g><path
       d="m 550.08952,268.86637 c 6.44798,-0.0271 13.06047,1.77305 18.0721,5.82926 2.5681,2.02262 4.64246,4.56026 6.40417,7.26214 3.16983,-4.98572 7.79998,-9.22203 13.50969,-11.26406 6.95772,-2.54148 14.82221,-2.36595 21.76796,0.12511 6.06691,2.15518 11.3716,5.91103 16.18251,10.04161 3.7636,3.23273 7.24644,6.77005 11.12236,9.8819 2.04246,1.61232 4.23709,3.12315 6.74905,3.95855 3.33831,1.10895 7.28666,0.0629 9.67401,-2.43999 2.21091,-2.34234 2.07434,-6.39113 -0.3612,-8.53043 -1.54869,-1.30037 -4.19687,-1.03882 -5.29272,0.69442 -0.95857,1.37473 -0.42098,3.08857 0.32967,4.41997 -1.99466,-1.41705 -3.99257,-3.39281 -3.98495,-5.96956 -0.41299,-2.97896 1.85806,-5.60683 4.57834,-6.64915 5.30868,-2.06564 11.96535,-0.28482 15.31596,4.26345 3.22201,4.24408 3.4785,9.82306 2.91698,14.87893 -0.67817,4.80243 -3.43864,9.28479 -7.53156,12.06458 -5.74556,3.99028 -13.02859,5.22753 -19.95805,5.14188 -6.66067,-0.17589 -13.25322,-1.63982 -19.42444,-4.06077 -10.31994,-4.0368 -19.97801,-9.61614 -30.63522,-12.84079 -3.535,-1.33525 -7.29463,-2.05754 -11.07453,-2.2803 -3.00936,-0.0192 -5.86222,-0.15619 -8.70312,0.0314 -3.4669,0.32431 -6.91353,1.01519 -10.15944,2.25248 -10.8376,3.27997 -20.64023,8.9996 -31.15687,13.04453 -8.87991,3.36141 -18.7184,4.92334 -28.1435,3.05684 -5.27245,-1.03844 -10.521,-3.30676 -14.07991,-7.34782 -3.04558,-3.43577 -4.5059,-8.03481 -4.36208,-12.54044 -0.16837,-4.25182 0.79047,-8.76907 3.67956,-12.0801 2.68803,-3.13864 7.01785,-4.73157 11.17489,-4.38014 2.67606,0.12091 5.38872,1.25703 7.04176,3.35368 1.30017,1.6592 1.38025,3.93175 0.81039,5.87191 -0.69411,1.7452 -2.12651,3.10796 -3.68318,4.15418 0.79445,-1.30424 1.2759,-3.02585 0.33691,-4.38859 -1.15564,-1.81537 -4.00053,-1.99867 -5.50504,-0.50761 -1.85371,1.85482 -2.24314,4.88456 -0.9991,7.15675 1.34798,2.38184 4.13708,3.74037 6.83707,4.01743 4.08493,0.34369 7.62792,-2.11992 10.62531,-4.50914 6.20313,-5.1969 11.78822,-11.1428 18.66985,-15.53917 5.67384,-3.70121 12.35842,-6.20395 19.256,-6.17258 z"
       fill="#423426"
       id="path934"
       style="stroke-width:0.35735" /><g
       transform="matrix(0.33478882,0,0,0.33478882,522.49556,272.67385)"
       id="g20">
            <path
   d="m 0,167.33 c -1.664,-1.42 -2.536,-2.262 -2.536,-2.262 L 140.006,153.391 C 23.733,0 -69.418,122.193 -79.333,135.855 v 31.475 z"
   style="fill-rule:nonzero"
   id="path18" />
        </g><g
       transform="matrix(0.33478882,0,0,0.33478882,621.8582,270.56602)"
       id="g24">
            <path
   d="m 0,171.974 c 1.663,-1.42 2.536,-2.264 2.536,-2.264 L -134.448,159.687 C -18.12,0 69.421,126.835 79.335,140.497 v 31.477 z"
   style="fill-rule:nonzero"
   id="path22" />
        </g><g
       transform="matrix(-5.1222689e-6,-89.459255,-89.459255,5.1222689e-6,642.73061,366.61593)"
       id="g28">
            <path
   d="m 1,-0.586 c 0,0 -0.232,0.058 -0.476,0.421 L 0.5,-0.064 c 0,0 0.6,0.329 -0.076,0.795 0,0 0.084,-0.145 -0.019,-0.534 0,0 -0.274,0.179 -0.265,0.539 0,0 -0.415,-0.345 0.184,-0.871 0,0 0.215,-0.556 0.676,-0.601 z"
   style="fill:url(#_Linear2);fill-rule:nonzero"
   id="path26" />
        </g><g
       id="g1056"
       transform="translate(-3.3815811,4)"><g
         transform="matrix(0.33478882,0,0,0.33478882,604.51405,256.4262)"
         id="g32">
            <path
   d="m 0,-92.063 c 0,0 43.486,-47.615 86.974,0 0,0 34.17,63.492 0,95.234 0,0 -55.912,44.444 -86.974,0 0,0 -37.275,-34.921 0,-95.234"
   style="fill-rule:nonzero"
   id="path30" />
        </g><g
         transform="matrix(0.33478882,0,0,0.33478882,621.36933,231.51758)"
         id="g36">
            <path
   d="m 0,0.002 c 0,18.541 -10.93,33.572 -24.408,33.572 -13.477,0 -24.406,-15.031 -24.406,-33.572 0,-18.541 10.929,-33.574 24.406,-33.574 C -10.93,-33.572 0,-18.539 0,0.002"
   style="fill:#ffffff;fill-rule:nonzero"
   id="path34" />
        </g><g
         transform="matrix(0.33478882,0,0,0.33478882,525.53422,254.20789)"
         id="g40">
            <path
   d="m 0,-98.439 c 0,0 74.596,-33.028 94.956,40.691 0,0 21.327,85.926 -61.259,90.776 0,0 -105.31,-20.283 -33.697,-131.467"
   style="fill-rule:nonzero"
   id="path38" />
        </g><g
         transform="matrix(0.33478882,0,0,0.33478882,538.07741,231.92569)"
         id="g44">
            <path
   d="m 0,0 c 0,19.119 -11.27,34.627 -25.173,34.627 -13.898,0 -25.171,-15.508 -25.171,-34.627 0,-19.124 11.273,-34.627 25.171,-34.627 C -11.27,-34.627 0,-19.124 0,0"
   style="fill:#ffffff;fill-rule:nonzero"
   id="path42" />
        </g></g><g
       transform="matrix(-5.1222689e-6,-80.021559,-80.021559,5.1222689e-6,506.36979,370.3515)"
       id="g48">
            <path
   d="m 0.367,0.129 c -0.731,-0.57 -0.144,-0.84 -0.144,-0.84 0.036,0.32 0.249,0.547 0.249,0.547 0.049,-0.384 0.053,-0.606 0.053,-0.606 0.678,0.514 0.064,0.931 0.064,0.931 0.038,0.104 0.183,0.211 0.317,0.29 L 1,0.77 C 0.376,0.403 0.367,0.129 0.367,0.129 Z"
   style="fill:url(#_Linear3);fill-rule:nonzero"
   id="path46" />
        </g></g></g>
    <defs
   id="defs76"><marker
   style="overflow:visible;"
   id="marker7609"
   refX="0.0"
   refY="0.0"
   orient="auto"
   inkscape:stockid="Arrow2Lend"
   inkscape:isstock="true"><path
     transform="scale(1.1) rotate(180) translate(1,0)"
     d="M 8.7185878,4.0337352 L -2.2072895,0.016013256 L 8.7185884,-4.0017078 C 6.9730900,-1.6296469 6.9831476,1.6157441 8.7185878,4.0337352 z "
     style="fill-rule:evenodd;stroke-width:0.625;stroke-linejoin:round;stroke:#000000;stroke-opacity:1;fill:#000000;fill-opacity:1"
     id="path7607" /></marker><marker
   style="overflow:visible;"
   id="marker7599"
   refX="0.0"
   refY="0.0"
   orient="auto"
   inkscape:stockid="Arrow2Lend"
   inkscape:isstock="true"><path
     transform="scale(1.1) rotate(180) translate(1,0)"
     d="M 8.7185878,4.0337352 L -2.2072895,0.016013256 L 8.7185884,-4.0017078 C 6.9730900,-1.6296469 6.9831476,1.6157441 8.7185878,4.0337352 z "
     style="fill-rule:evenodd;stroke-width:0.625;stroke-linejoin:round;stroke:#000000;stroke-opacity:1;fill:#000000;fill-opacity:1"
     id="path7597" /></marker><marker
   style="overflow:visible;"
   id="marker7355"
   refX="0.0"
   refY="0.0"
   orient="auto"
   inkscape:stockid="Arrow2Lend"
   inkscape:isstock="true"><path
     transform="scale(1.1) rotate(180) translate(1,0)"
     d="M 8.7185878,4.0337352 L -2.2072895,0.016013256 L 8.7185884,-4.0017078 C 6.9730900,-1.6296469 6.9831476,1.6157441 8.7185878,4.0337352 z "
     style="fill-rule:evenodd;stroke-width:0.625;stroke-linejoin:round;stroke:#000000;stroke-opacity:1;fill:#000000;fill-opacity:1"
     id="path7353" /></marker><marker
   style="overflow:visible;"
   id="marker7117"
   refX="0.0"
   refY="0.0"
   orient="auto"
   inkscape:stockid="Arrow2Lend"
   inkscape:isstock="true"><path
     transform="scale(1.1) rotate(180) translate(1,0)"
     d="M 8.7185878,4.0337352 L -2.2072895,0.016013256 L 8.7185884,-4.0017078 C 6.9730900,-1.6296469 6.9831476,1.6157441 8.7185878,4.0337352 z "
     style="fill-rule:evenodd;stroke-width:0.625;stroke-linejoin:round;stroke:#000000;stroke-opacity:1;fill:#000000;fill-opacity:1"
     id="path7115" /></marker><marker
   style="overflow:visible;"
   id="marker6885"
   refX="0.0"
   refY="0.0"
   orient="auto"
   inkscape:stockid="Arrow2Lend"
   inkscape:isstock="true"><path
     transform="scale(1.1) rotate(180) translate(1,0)"
     d="M 8.7185878,4.0337352 L -2.2072895,0.016013256 L 8.7185884,-4.0017078 C 6.9730900,-1.6296469 6.9831476,1.6157441 8.7185878,4.0337352 z "
     style="fill-rule:evenodd;stroke-width:0.625;stroke-linejoin:round;stroke:#000000;stroke-opacity:1;fill:#000000;fill-opacity:1"
     id="path6883" /></marker><marker
   style="overflow:visible;"
   id="marker6659"
   refX="0.0"
   refY="0.0"
   orient="auto"
   inkscape:stockid="Arrow2Lend"
   inkscape:isstock="true"><path
     transform="scale(1.1) rotate(180) translate(1,0)"
     d="M 8.7185878,4.0337352 L -2.2072895,0.016013256 L 8.7185884,-4.0017078 C 6.9730900,-1.6296469 6.9831476,1.6157441 8.7185878,4.0337352 z "
     style="fill-rule:evenodd;stroke-width:0.625;stroke-linejoin:round;stroke:#000000;stroke-opacity:1;fill:#000000;fill-opacity:1"
     id="path6657" /></marker><marker
   style="overflow:visible;"
   id="marker6439"
   refX="0.0"
   refY="0.0"
   orient="auto"
   inkscape:stockid="Arrow2Lend"
   inkscape:isstock="true"><path
     transform="scale(1.1) rotate(180) translate(1,0)"
     d="M 8.7185878,4.0337352 L -2.2072895,0.016013256 L 8.7185884,-4.0017078 C 6.9730900,-1.6296469 6.9831476,1.6157441 8.7185878,4.0337352 z "
     style="fill-rule:evenodd;stroke-width:0.625;stroke-linejoin:round;stroke:#000000;stroke-opacity:1;fill:#000000;fill-opacity:1"
     id="path6437" /></marker><marker
   style="overflow:visible"
   id="marker5931"
   refX="0.0"
   refY="0.0"
   orient="auto"
   inkscape:stockid="TriangleOutL"
   inkscape:isstock="true"><path
     transform="scale(0.8)"
     style="fill-rule:evenodd;stroke:#000000;stroke-width:1pt;stroke-opacity:1;fill:#000000;fill-opacity:1"
     d="M 5.77,0.0 L -2.88,5.0 L -2.88,-5.0 L 5.77,0.0 z "
     id="path5929" /></marker><marker
   style="overflow:visible"
   id="marker5921"
   refX="0.0"
   refY="0.0"
   orient="auto"
   inkscape:stockid="TriangleOutL"
   inkscape:isstock="true"><path
     transform="scale(0.8)"
     style="fill-rule:evenodd;stroke:#000000;stroke-width:1pt;stroke-opacity:1;fill:#000000;fill-opacity:1"
     d="M 5.77,0.0 L -2.88,5.0 L -2.88,-5.0 L 5.77,0.0 z "
     id="path5919" /></marker><marker
   style="overflow:visible"
   id="marker5713"
   refX="0.0"
   refY="0.0"
   orient="auto"
   inkscape:stockid="TriangleOutL"
   inkscape:isstock="true"><path
     transform="scale(0.8)"
     style="fill-rule:evenodd;stroke:#000000;stroke-width:1pt;stroke-opacity:1;fill:#000000;fill-opacity:1"
     d="M 5.77,0.0 L -2.88,5.0 L -2.88,-5.0 L 5.77,0.0 z "
     id="path5711" /></marker><marker
   style="overflow:visible"
   id="marker5511"
   refX="0.0"
   refY="0.0"
   orient="auto"
   inkscape:stockid="TriangleOutL"
   inkscape:isstock="true"><path
     transform="scale(0.8)"
     style="fill-rule:evenodd;stroke:#000000;stroke-width:1pt;stroke-opacity:1;fill:#000000;fill-opacity:1"
     d="M 5.77,0.0 L -2.88,5.0 L -2.88,-5.0 L 5.77,0.0 z "
     id="path5509" /></marker><marker
   style="overflow:visible"
   id="marker5315"
   refX="0.0"
   refY="0.0"
   orient="auto"
   inkscape:stockid="TriangleOutL"
   inkscape:isstock="true"><path
     transform="scale(0.8)"
     style="fill-rule:evenodd;stroke:#000000;stroke-width:1pt;stroke-opacity:1;fill:#000000;fill-opacity:1"
     d="M 5.77,0.0 L -2.88,5.0 L -2.88,-5.0 L 5.77,0.0 z "
     id="path5313" /></marker><marker
   style="overflow:visible"
   id="marker5125"
   refX="0.0"
   refY="0.0"
   orient="auto"
   inkscape:stockid="TriangleOutL"
   inkscape:isstock="true"><path
     transform="scale(0.8)"
     style="fill-rule:evenodd;stroke:#000000;stroke-width:1pt;stroke-opacity:1;fill:#000000;fill-opacity:1"
     d="M 5.77,0.0 L -2.88,5.0 L -2.88,-5.0 L 5.77,0.0 z "
     id="path5123" /></marker><marker
   style="overflow:visible"
   id="marker4941"
   refX="0.0"
   refY="0.0"
   orient="auto"
   inkscape:stockid="TriangleOutL"
   inkscape:isstock="true"><path
     transform="scale(0.8)"
     style="fill-rule:evenodd;stroke:#000000;stroke-width:1pt;stroke-opacity:1;fill:#000000;fill-opacity:1"
     d="M 5.77,0.0 L -2.88,5.0 L -2.88,-5.0 L 5.77,0.0 z "
     id="path4939" /></marker><marker
   style="overflow:visible;"
   id="marker4667"
   refX="0.0"
   refY="0.0"
   orient="auto"
   inkscape:stockid="Arrow2Lend"
   inkscape:isstock="true"><path
     transform="scale(1.1) rotate(180) translate(1,0)"
     d="M 8.7185878,4.0337352 L -2.2072895,0.016013256 L 8.7185884,-4.0017078 C 6.9730900,-1.6296469 6.9831476,1.6157441 8.7185878,4.0337352 z "
     style="fill-rule:evenodd;stroke-width:0.625;stroke-linejoin:round;stroke:#000000;stroke-opacity:1;fill:#000000;fill-opacity:1"
     id="path4665" /></marker><marker
   style="overflow:visible;"
   id="marker4501"
   refX="0.0"
   refY="0.0"
   orient="auto"
   inkscape:stockid="Arrow2Lend"
   inkscape:isstock="true"><path
     transform="scale(1.1) rotate(180) translate(1,0)"
     d="M 8.7185878,4.0337352 L -2.2072895,0.016013256 L 8.7185884,-4.0017078 C 6.9730900,-1.6296469 6.9831476,1.6157441 8.7185878,4.0337352 z "
     style="fill-rule:evenodd;stroke-width:0.625;stroke-linejoin:round;stroke:#000000;stroke-opacity:1;fill:#000000;fill-opacity:1"
     id="path4499" /></marker><marker
   style="overflow:visible;"
   id="marker4341"
   refX="0.0"
   refY="0.0"
   orient="auto"
   inkscape:stockid="Arrow2Lend"
   inkscape:isstock="true"><path
     transform="scale(1.1) rotate(180) translate(1,0)"
     d="M 8.7185878,4.0337352 L -2.2072895,0.016013256 L 8.7185884,-4.0017078 C 6.9730900,-1.6296469 6.9831476,1.6157441 8.7185878,4.0337352 z "
     style="fill-rule:evenodd;stroke-width:0.625;stroke-linejoin:round;stroke:#000000;stroke-opacity:1;fill:#000000;fill-opacity:1"
     id="path4339" /></marker><marker
   style="overflow:visible;"
   id="marker4187"
   refX="0.0"
   refY="0.0"
   orient="auto"
   inkscape:stockid="Arrow2Lend"
   inkscape:isstock="true"><path
     transform="scale(1.1) rotate(180) translate(1,0)"
     d="M 8.7185878,4.0337352 L -2.2072895,0.016013256 L 8.7185884,-4.0017078 C 6.9730900,-1.6296469 6.9831476,1.6157441 8.7185878,4.0337352 z "
     style="fill-rule:evenodd;stroke-width:0.625;stroke-linejoin:round;stroke:#000000;stroke-opacity:1;fill:#000000;fill-opacity:1"
     id="path4185" /></marker><marker
   style="overflow:visible;"
   id="marker4039"
   refX="0.0"
   refY="0.0"
   orient="auto"
   inkscape:stockid="Arrow2Lend"
   inkscape:isstock="true"><path
     transform="scale(1.1) rotate(180) translate(1,0)"
     d="M 8.7185878,4.0337352 L -2.2072895,0.016013256 L 8.7185884,-4.0017078 C 6.9730900,-1.6296469 6.9831476,1.6157441 8.7185878,4.0337352 z "
     style="fill-rule:evenodd;stroke-width:0.625;stroke-linejoin:round;stroke:#000000;stroke-opacity:1;fill:#000000;fill-opacity:1"
     id="path4037" /></marker><marker
   style="overflow:visible;"
   id="marker3897"
   refX="0.0"
   refY="0.0"
   orient="auto"
   inkscape:stockid="Arrow2Lend"
   inkscape:isstock="true"><path
     transform="scale(1.1) rotate(180) translate(1,0)"
     d="M 8.7185878,4.0337352 L -2.2072895,0.016013256 L 8.7185884,-4.0017078 C 6.9730900,-1.6296469 6.9831476,1.6157441 8.7185878,4.0337352 z "
     style="fill-rule:evenodd;stroke-width:0.625;stroke-linejoin:round;stroke:#000000;stroke-opacity:1;fill:#000000;fill-opacity:1"
     id="path3895" /></marker><marker
   style="overflow:visible;"
   id="marker3687"
   refX="0.0"
   refY="0.0"
   orient="auto"
   inkscape:stockid="Arrow1Lend"
   inkscape:isstock="true"><path
     transform="scale(0.8) rotate(180) translate(12.5,0)"
     style="fill-rule:evenodd;stroke:#000000;stroke-width:1pt;stroke-opacity:1;fill:#000000;fill-opacity:1"
     d="M 0.0,0.0 L 5.0,-5.0 L -12.5,0.0 L 5.0,5.0 L 0.0,0.0 z "
     id="path3685" /></marker><marker
   style="overflow:visible;"
   id="marker3665"
   refX="0.0"
   refY="0.0"
   orient="auto"
   inkscape:stockid="Arrow1Lend"
   inkscape:isstock="true"><path
     transform="scale(0.8) rotate(180) translate(12.5,0)"
     style="fill-rule:evenodd;stroke:#000000;stroke-width:1pt;stroke-opacity:1;fill:#000000;fill-opacity:1"
     d="M 0.0,0.0 L 5.0,-5.0 L -12.5,0.0 L 5.0,5.0 L 0.0,0.0 z "
     id="path3663" /></marker><marker
   style="overflow:visible;"
   id="marker3541"
   refX="0.0"
   refY="0.0"
   orient="auto"
   inkscape:stockid="Arrow1Lend"
   inkscape:isstock="true"><path
     transform="scale(0.8) rotate(180) translate(12.5,0)"
     style="fill-rule:evenodd;stroke:#000000;stroke-width:1pt;stroke-opacity:1;fill:#000000;fill-opacity:1"
     d="M 0.0,0.0 L 5.0,-5.0 L -12.5,0.0 L 5.0,5.0 L 0.0,0.0 z "
     id="path3539" /></marker><marker
   style="overflow:visible;"
   id="marker3423"
   refX="0.0"
   refY="0.0"
   orient="auto"
   inkscape:stockid="Arrow1Lend"
   inkscape:isstock="true"><path
     transform="scale(0.8) rotate(180) translate(12.5,0)"
     style="fill-rule:evenodd;stroke:#000000;stroke-width:1pt;stroke-opacity:1;fill:#000000;fill-opacity:1"
     d="M 0.0,0.0 L 5.0,-5.0 L -12.5,0.0 L 5.0,5.0 L 0.0,0.0 z "
     id="path3421" /></marker><marker
   style="overflow:visible;"
   id="marker3311"
   refX="0.0"
   refY="0.0"
   orient="auto"
   inkscape:stockid="Arrow1Lend"
   inkscape:isstock="true"><path
     transform="scale(0.8) rotate(180) translate(12.5,0)"
     style="fill-rule:evenodd;stroke:#000000;stroke-width:1pt;stroke-opacity:1;fill:#000000;fill-opacity:1"
     d="M 0.0,0.0 L 5.0,-5.0 L -12.5,0.0 L 5.0,5.0 L 0.0,0.0 z "
     id="path3309" /></marker><marker
   style="overflow:visible;"
   id="marker3199"
   refX="0.0"
   refY="0.0"
   orient="auto"
   inkscape:stockid="Arrow1Lend"
   inkscape:isstock="true"><path
     transform="scale(0.8) rotate(180) translate(12.5,0)"
     style="fill-rule:evenodd;stroke:#000000;stroke-width:1pt;stroke-opacity:1;fill:#000000;fill-opacity:1"
     d="M 0.0,0.0 L 5.0,-5.0 L -12.5,0.0 L 5.0,5.0 L 0.0,0.0 z "
     id="path3197" /></marker><marker
   style="overflow:visible;"
   id="marker3099"
   refX="0.0"
   refY="0.0"
   orient="auto"
   inkscape:stockid="Arrow1Lend"
   inkscape:isstock="true"><path
     transform="scale(0.8) rotate(180) translate(12.5,0)"
     style="fill-rule:evenodd;stroke:#000000;stroke-width:1pt;stroke-opacity:1;fill:#000000;fill-opacity:1"
     d="M 0.0,0.0 L 5.0,-5.0 L -12.5,0.0 L 5.0,5.0 L 0.0,0.0 z "
     id="path3097" /></marker><marker
   style="overflow:visible;"
   id="marker2123"
   refX="0.0"
   refY="0.0"
   orient="auto"
   inkscape:stockid="Arrow1Lend"
   inkscape:isstock="true"><path
     transform="scale(0.8) rotate(180) translate(12.5,0)"
     style="fill-rule:evenodd;stroke:#000000;stroke-width:1pt;stroke-opacity:1;fill:#000000;fill-opacity:1"
     d="M 0.0,0.0 L 5.0,-5.0 L -12.5,0.0 L 5.0,5.0 L 0.0,0.0 z "
     id="path2121" /></marker><marker
   style="overflow:visible;"
   id="marker2113"
   refX="0.0"
   refY="0.0"
   orient="auto"
   inkscape:stockid="Arrow1Lend"
   inkscape:isstock="true"><path
     transform="scale(0.8) rotate(180) translate(12.5,0)"
     style="fill-rule:evenodd;stroke:#000000;stroke-width:1pt;stroke-opacity:1;fill:#000000;fill-opacity:1"
     d="M 0.0,0.0 L 5.0,-5.0 L -12.5,0.0 L 5.0,5.0 L 0.0,0.0 z "
     id="path2111" /></marker><marker
   style="overflow:visible;"
   id="marker2025"
   refX="0.0"
   refY="0.0"
   orient="auto"
   inkscape:stockid="Arrow1Lend"
   inkscape:isstock="true"><path
     transform="scale(0.8) rotate(180) translate(12.5,0)"
     style="fill-rule:evenodd;stroke:#000000;stroke-width:1pt;stroke-opacity:1;fill:#000000;fill-opacity:1"
     d="M 0.0,0.0 L 5.0,-5.0 L -12.5,0.0 L 5.0,5.0 L 0.0,0.0 z "
     id="path2023" /></marker><marker
   style="overflow:visible;"
   id="marker1943"
   refX="0.0"
   refY="0.0"
   orient="auto"
   inkscape:stockid="Arrow1Lend"
   inkscape:isstock="true"><path
     transform="scale(0.8) rotate(180) translate(12.5,0)"
     style="fill-rule:evenodd;stroke:#000000;stroke-width:1pt;stroke-opacity:1;fill:#000000;fill-opacity:1"
     d="M 0.0,0.0 L 5.0,-5.0 L -12.5,0.0 L 5.0,5.0 L 0.0,0.0 z "
     id="path1941" /></marker><marker
   style="overflow:visible;"
   id="marker1867"
   refX="0.0"
   refY="0.0"
   orient="auto"
   inkscape:stockid="Arrow1Lend"
   inkscape:isstock="true"><path
     transform="scale(0.8) rotate(180) translate(12.5,0)"
     style="fill-rule:evenodd;stroke:#000000;stroke-width:1pt;stroke-opacity:1;fill:#000000;fill-opacity:1"
     d="M 0.0,0.0 L 5.0,-5.0 L -12.5,0.0 L 5.0,5.0 L 0.0,0.0 z "
     id="path1865" /></marker><marker
   style="overflow:visible;"
   id="marker1797"
   refX="0.0"
   refY="0.0"
   orient="auto"
   inkscape:stockid="Arrow1Lend"
   inkscape:isstock="true"><path
     transform="scale(0.8) rotate(180) translate(12.5,0)"
     style="fill-rule:evenodd;stroke:#000000;stroke-width:1pt;stroke-opacity:1;fill:#000000;fill-opacity:1"
     d="M 0.0,0.0 L 5.0,-5.0 L -12.5,0.0 L 5.0,5.0 L 0.0,0.0 z "
     id="path1795" /></marker><marker
   style="overflow:visible"
   id="marker1589"
   refX="0.0"
   refY="0.0"
   orient="auto"
   inkscape:stockid="Arrow1Lstart"
   inkscape:isstock="true"><path
     transform="scale(0.8) translate(12.5,0)"
     style="fill-rule:evenodd;stroke:#000000;stroke-width:1pt;stroke-opacity:1;fill:#000000;fill-opacity:1"
     d="M 0.0,0.0 L 5.0,-5.0 L -12.5,0.0 L 5.0,5.0 L 0.0,0.0 z "
     id="path1587" /></marker><marker
   style="overflow:visible"
   id="marker1579"
   refX="0.0"
   refY="0.0"
   orient="auto"
   inkscape:stockid="Arrow1Lstart"
   inkscape:isstock="true"><path
     transform="scale(0.8) translate(12.5,0)"
     style="fill-rule:evenodd;stroke:#000000;stroke-width:1pt;stroke-opacity:1;fill:#000000;fill-opacity:1"
     d="M 0.0,0.0 L 5.0,-5.0 L -12.5,0.0 L 5.0,5.0 L 0.0,0.0 z "
     id="path1577" /></marker><marker
   style="overflow:visible"
   id="marker1533"
   refX="0.0"
   refY="0.0"
   orient="auto"
   inkscape:stockid="Arrow1Lstart"
   inkscape:isstock="true"><path
     transform="scale(0.8) translate(12.5,0)"
     style="fill-rule:evenodd;stroke:#000000;stroke-width:1pt;stroke-opacity:1;fill:#000000;fill-opacity:1"
     d="M 0.0,0.0 L 5.0,-5.0 L -12.5,0.0 L 5.0,5.0 L 0.0,0.0 z "
     id="path1531" /></marker><marker
   style="overflow:visible"
   id="marker1493"
   refX="0.0"
   refY="0.0"
   orient="auto"
   inkscape:stockid="Arrow1Lstart"
   inkscape:isstock="true"><path
     transform="scale(0.8) translate(12.5,0)"
     style="fill-rule:evenodd;stroke:#000000;stroke-width:1pt;stroke-opacity:1;fill:#000000;fill-opacity:1"
     d="M 0.0,0.0 L 5.0,-5.0 L -12.5,0.0 L 5.0,5.0 L 0.0,0.0 z "
     id="path1491" /></marker><marker
   style="overflow:visible"
   id="marker1459"
   refX="0.0"
   refY="0.0"
   orient="auto"
   inkscape:stockid="Arrow1Lstart"
   inkscape:isstock="true"><path
     transform="scale(0.8) translate(12.5,0)"
     style="fill-rule:evenodd;stroke:#000000;stroke-width:1pt;stroke-opacity:1;fill:#000000;fill-opacity:1"
     d="M 0.0,0.0 L 5.0,-5.0 L -12.5,0.0 L 5.0,5.0 L 0.0,0.0 z "
     id="path1457" /></marker><marker
   style="overflow:visible"
   id="marker1431"
   refX="0.0"
   refY="0.0"
   orient="auto"
   inkscape:stockid="Arrow1Lstart"
   inkscape:isstock="true"><path
     transform="scale(0.8) translate(12.5,0)"
     style="fill-rule:evenodd;stroke:#000000;stroke-width:1pt;stroke-opacity:1;fill:#000000;fill-opacity:1"
     d="M 0.0,0.0 L 5.0,-5.0 L -12.5,0.0 L 5.0,5.0 L 0.0,0.0 z "
     id="path1429" /></marker><marker
   style="overflow:visible"
   id="marker1409"
   refX="0.0"
   refY="0.0"
   orient="auto"
   inkscape:stockid="Arrow1Lstart"
   inkscape:isstock="true"><path
     transform="scale(0.8) translate(12.5,0)"
     style="fill-rule:evenodd;stroke:#000000;stroke-width:1pt;stroke-opacity:1;fill:#000000;fill-opacity:1"
     d="M 0.0,0.0 L 5.0,-5.0 L -12.5,0.0 L 5.0,5.0 L 0.0,0.0 z "
     id="path1407" /></marker>
        <linearGradient
   id="_Linear1"
   x1="0"
   y1="0"
   x2="1"
   y2="0"
   gradientUnits="userSpaceOnUse"
   gradientTransform="matrix(1,0,0,-1,0,-6.50515e-4)"><stop
     offset="0"
     style="stop-color:rgb(247,76,0);stop-opacity:1"
     id="stop51" /><stop
     offset="0.33"
     style="stop-color:rgb(247,76,0);stop-opacity:1"
     id="stop53" /><stop
     offset="1"
     style="stop-color:rgb(244,150,0);stop-opacity:1"
     id="stop55" /></linearGradient>
        <linearGradient
   id="_Linear2"
   x1="0"
   y1="0"
   x2="1"
   y2="0"
   gradientUnits="userSpaceOnUse"
   gradientTransform="matrix(1,0,0,-1,0,1.23438e-6)"><stop
     offset="0"
     style="stop-color:rgb(204,58,0);stop-opacity:1"
     id="stop58" /><stop
     offset="0.15"
     style="stop-color:rgb(204,58,0);stop-opacity:1"
     id="stop60" /><stop
     offset="0.74"
     style="stop-color:rgb(247,76,0);stop-opacity:1"
     id="stop62" /><stop
     offset="1"
     style="stop-color:rgb(247,76,0);stop-opacity:1"
     id="stop64" /></linearGradient>
        <linearGradient
   id="_Linear3"
   x1="0"
   y1="0"
   x2="1"
   y2="0"
   gradientUnits="userSpaceOnUse"
   gradientTransform="scale(1,-1)"><stop
     offset="0"
     style="stop-color:rgb(204,58,0);stop-opacity:1"
     id="stop67" /><stop
     offset="0.15"
     style="stop-color:rgb(204,58,0);stop-opacity:1"
     id="stop69" /><stop
     offset="0.74"
     style="stop-color:rgb(247,76,0);stop-opacity:1"
     id="stop71" /><stop
     offset="1"
     style="stop-color:rgb(247,76,0);stop-opacity:1"
     id="stop73" /></linearGradient>
    
        
        
        
        
        
        
        
        
        
        
        
        
    <linearGradient
   id="_Linear1-5"
   x1="0"
   y1="0"
   x2="1"
   y2="0"
   gradientUnits="userSpaceOnUse"
   gradientTransform="matrix(1,0,0,-1,0,-6.50515e-4)"><stop
     offset="0"
     style="stop-color:rgb(247,76,0);stop-opacity:1"
     id="stop1366" /><stop
     offset="0.33"
     style="stop-color:rgb(247,76,0);stop-opacity:1"
     id="stop1368" /><stop
     offset="1"
     style="stop-color:rgb(244,150,0);stop-opacity:1"
     id="stop1370" /></linearGradient><linearGradient
   id="_Linear2-3"
   x1="0"
   y1="0"
   x2="1"
   y2="0"
   gradientUnits="userSpaceOnUse"
   gradientTransform="matrix(1,0,0,-1,0,1.23438e-6)"><stop
     offset="0"
     style="stop-color:rgb(204,58,0);stop-opacity:1"
     id="stop1373" /><stop
     offset="0.15"
     style="stop-color:rgb(204,58,0);stop-opacity:1"
     id="stop1375" /><stop
     offset="0.74"
     style="stop-color:rgb(247,76,0);stop-opacity:1"
     id="stop1377" /><stop
     offset="1"
     style="stop-color:rgb(247,76,0);stop-opacity:1"
     id="stop1379" /></linearGradient><linearGradient
   id="_Linear3-5"
   x1="0"
   y1="0"
   x2="1"
   y2="0"
   gradientUnits="userSpaceOnUse"
   gradientTransform="scale(1,-1)"><stop
     offset="0"
     style="stop-color:rgb(204,58,0);stop-opacity:1"
     id="stop1382" /><stop
     offset="0.15"
     style="stop-color:rgb(204,58,0);stop-opacity:1"
     id="stop1384" /><stop
     offset="0.74"
     style="stop-color:rgb(247,76,0);stop-opacity:1"
     id="stop1386" /><stop
     offset="1"
     style="stop-color:rgb(247,76,0);stop-opacity:1"
     id="stop1388" /></linearGradient><linearGradient
   id="_Linear2-3-1"
   x1="0"
   y1="0"
   x2="1"
   y2="0"
   gradientUnits="userSpaceOnUse"
   gradientTransform="matrix(1,0,0,-1,0,1.23438e-6)"><stop
     offset="0"
     style="stop-color:rgb(204,58,0);stop-opacity:1"
     id="stop1373-2" /><stop
     offset="0.15"
     style="stop-color:rgb(204,58,0);stop-opacity:1"
     id="stop1375-7" /><stop
     offset="0.74"
     style="stop-color:rgb(247,76,0);stop-opacity:1"
     id="stop1377-0" /><stop
     offset="1"
     style="stop-color:rgb(247,76,0);stop-opacity:1"
     id="stop1379-9" /></linearGradient><linearGradient
   id="_Linear2-3-4"
   x1="0"
   y1="0"
   x2="1"
   y2="0"
   gradientUnits="userSpaceOnUse"
   gradientTransform="matrix(1,0,0,-1,0,1.23438e-6)"><stop
     offset="0"
     style="stop-color:rgb(204,58,0);stop-opacity:1"
     id="stop1373-5" /><stop
     offset="0.15"
     style="stop-color:rgb(204,58,0);stop-opacity:1"
     id="stop1375-0" /><stop
     offset="0.74"
     style="stop-color:rgb(247,76,0);stop-opacity:1"
     id="stop1377-3" /><stop
     offset="1"
     style="stop-color:rgb(247,76,0);stop-opacity:1"
     id="stop1379-6" /></linearGradient><linearGradient
   id="_Linear2-3-49"
   x1="0"
   y1="0"
   x2="1"
   y2="0"
   gradientUnits="userSpaceOnUse"
   gradientTransform="matrix(1,0,0,-1,0,1.23438e-6)"><stop
     offset="0"
     style="stop-color:rgb(204,58,0);stop-opacity:1"
     id="stop1373-20" /><stop
     offset="0.15"
     style="stop-color:rgb(204,58,0);stop-opacity:1"
     id="stop1375-6" /><stop
     offset="0.74"
     style="stop-color:rgb(247,76,0);stop-opacity:1"
     id="stop1377-8" /><stop
     offset="1"
     style="stop-color:rgb(247,76,0);stop-opacity:1"
     id="stop1379-92" /></linearGradient><linearGradient
   id="_Linear2-3-3"
   x1="0"
   y1="0"
   x2="1"
   y2="0"
   gradientUnits="userSpaceOnUse"
   gradientTransform="matrix(1,0,0,-1,0,1.23438e-6)"><stop
     offset="0"
     style="stop-color:rgb(204,58,0);stop-opacity:1"
     id="stop1373-6" /><stop
     offset="0.15"
     style="stop-color:rgb(204,58,0);stop-opacity:1"
     id="stop1375-5" /><stop
     offset="0.74"
     style="stop-color:rgb(247,76,0);stop-opacity:1"
     id="stop1377-6" /><stop
     offset="1"
     style="stop-color:rgb(247,76,0);stop-opacity:1"
     id="stop1379-3" /></linearGradient><linearGradient
   id="_Linear2-3-9"
   x1="0"
   y1="0"
   x2="1"
   y2="0"
   gradientUnits="userSpaceOnUse"
   gradientTransform="matrix(1,0,0,-1,0,1.23438e-6)"><stop
     offset="0"
     style="stop-color:rgb(204,58,0);stop-opacity:1"
     id="stop1373-62" /><stop
     offset="0.15"
     style="stop-color:rgb(204,58,0);stop-opacity:1"
     id="stop1375-1" /><stop
     offset="0.74"
     style="stop-color:rgb(247,76,0);stop-opacity:1"
     id="stop1377-7" /><stop
     offset="1"
     style="stop-color:rgb(247,76,0);stop-opacity:1"
     id="stop1379-8" /></linearGradient><linearGradient
   id="_Linear2-3-2"
   x1="0"
   y1="0"
   x2="1"
   y2="0"
   gradientUnits="userSpaceOnUse"
   gradientTransform="matrix(1,0,0,-1,0,1.23438e-6)"><stop
     offset="0"
     style="stop-color:rgb(204,58,0);stop-opacity:1"
     id="stop1373-54" /><stop
     offset="0.15"
     style="stop-color:rgb(204,58,0);stop-opacity:1"
     id="stop1375-05" /><stop
     offset="0.74"
     style="stop-color:rgb(247,76,0);stop-opacity:1"
     id="stop1377-9" /><stop
     offset="1"
     style="stop-color:rgb(247,76,0);stop-opacity:1"
     id="stop1379-4" /></linearGradient><linearGradient
   id="_Linear2-3-29"
   x1="0"
   y1="0"
   x2="1"
   y2="0"
   gradientUnits="userSpaceOnUse"
   gradientTransform="matrix(1,0,0,-1,0,1.23438e-6)"><stop
     offset="0"
     style="stop-color:rgb(204,58,0);stop-opacity:1"
     id="stop1373-9" /><stop
     offset="0.15"
     style="stop-color:rgb(204,58,0);stop-opacity:1"
     id="stop1375-08" /><stop
     offset="0.74"
     style="stop-color:rgb(247,76,0);stop-opacity:1"
     id="stop1377-1" /><stop
     offset="1"
     style="stop-color:rgb(247,76,0);stop-opacity:1"
     id="stop1379-31" /></linearGradient>
	
	
	
	
	

	
	
	

	
	
	
</defs>
<g
   id="g2551"
   transform="translate(494.48271,101.1079)"><path
     style="fill:#e9e9e0;stroke-width:2.4418"
     d="m 172.40272,79.222965 h -70.866 c -1.972974,0 -3.572355,1.599381 -3.572355,4.702912 V 213.52211 c 0,0.84242 1.599381,2.4418 3.572355,2.4418 h 97.8528 c 1.97298,0 3.57236,-1.59938 3.57236,-2.4418 V 110.91268 c 0,-1.6995 -0.22709,-2.24646 -0.62755,-2.64936 L 173.92152,79.850508 c -0.4029,-0.400455 -0.94986,-0.627543 -1.5188,-0.627543 z"
     id="path1086" /><polygon
     style="fill:#d9d7ca"
     points="37.5,0.151 37.5,12 49.349,12 "
     id="polygon1088"
     transform="matrix(2.4418026,0,0,2.4418026,82.092648,79.222965)" /><path
     style="fill:#9777a8;stroke-width:2.4418"
     d="m 199.38952,215.96391 h -97.8528 c -1.972974,0 -3.572355,-1.59938 -3.572355,-3.57236 V 174.45327 H 202.96188 v 37.93828 c 0,1.97298 -1.59938,3.57236 -3.57236,3.57236 z"
     id="path1090" /><g
     id="g1100"
     transform="matrix(2.4418026,0,0,2.4418026,82.092648,79.222965)">
		<path
   style="fill:#ffffff"
   d="m 17.021,42.719 v 7.848 c 0,0.474 -0.087,0.873 -0.26,1.196 -0.173,0.323 -0.405,0.583 -0.697,0.779 -0.292,0.196 -0.627,0.333 -1.005,0.41 -0.378,0.077 -0.768,0.116 -1.169,0.116 -0.2,0 -0.436,-0.021 -0.704,-0.062 -0.268,-0.041 -0.547,-0.104 -0.834,-0.191 -0.287,-0.087 -0.563,-0.185 -0.827,-0.294 -0.264,-0.109 -0.487,-0.232 -0.67,-0.369 l 0.697,-1.107 c 0.091,0.063 0.221,0.13 0.39,0.198 0.169,0.068 0.354,0.132 0.554,0.191 0.2,0.059 0.41,0.111 0.629,0.157 0.219,0.046 0.424,0.068 0.615,0.068 0.483,0 0.868,-0.094 1.155,-0.28 0.287,-0.186 0.439,-0.504 0.458,-0.95 v -7.711 h 1.668 z"
   id="path1092" />
		<path
   style="fill:#ffffff"
   d="m 25.184,50.238 c 0,0.364 -0.075,0.718 -0.226,1.06 -0.151,0.342 -0.362,0.643 -0.636,0.902 -0.274,0.259 -0.61,0.467 -1.012,0.622 -0.402,0.155 -0.856,0.232 -1.367,0.232 -0.219,0 -0.444,-0.012 -0.677,-0.034 -0.233,-0.022 -0.467,-0.062 -0.704,-0.116 -0.237,-0.055 -0.463,-0.13 -0.677,-0.226 -0.214,-0.096 -0.398,-0.212 -0.554,-0.349 l 0.287,-1.176 c 0.128,0.073 0.289,0.144 0.485,0.212 0.196,0.068 0.398,0.132 0.608,0.191 0.21,0.059 0.419,0.107 0.629,0.144 0.21,0.037 0.405,0.055 0.588,0.055 0.556,0 0.982,-0.13 1.278,-0.39 0.296,-0.26 0.444,-0.645 0.444,-1.155 0,-0.31 -0.104,-0.574 -0.314,-0.793 C 23.126,49.198 22.864,49 22.55,48.822 22.236,48.644 21.896,48.467 21.531,48.289 21.166,48.111 20.825,47.901 20.506,47.66 c -0.319,-0.241 -0.583,-0.526 -0.793,-0.854 -0.21,-0.328 -0.314,-0.738 -0.314,-1.23 0,-0.446 0.082,-0.843 0.246,-1.189 0.164,-0.346 0.385,-0.641 0.663,-0.882 0.278,-0.241 0.602,-0.426 0.971,-0.554 0.369,-0.128 0.759,-0.191 1.169,-0.191 0.419,0 0.843,0.039 1.271,0.116 0.428,0.077 0.774,0.203 1.039,0.376 -0.055,0.118 -0.118,0.248 -0.191,0.39 -0.073,0.142 -0.142,0.273 -0.205,0.396 -0.063,0.123 -0.118,0.226 -0.164,0.308 -0.046,0.082 -0.073,0.128 -0.082,0.137 C 24.061,44.456 24,44.42 23.931,44.374 23.862,44.328 23.765,44.283 23.637,44.237 23.509,44.191 23.341,44.16 23.131,44.141 c -0.21,-0.019 -0.479,-0.014 -0.807,0.014 -0.183,0.019 -0.355,0.07 -0.52,0.157 -0.165,0.087 -0.31,0.193 -0.438,0.321 -0.128,0.128 -0.228,0.271 -0.301,0.431 -0.073,0.16 -0.109,0.313 -0.109,0.458 0,0.364 0.104,0.658 0.314,0.882 0.21,0.224 0.47,0.419 0.779,0.588 0.309,0.169 0.647,0.333 1.012,0.492 0.365,0.159 0.704,0.354 1.019,0.581 0.315,0.227 0.576,0.513 0.786,0.854 0.21,0.341 0.318,0.781 0.318,1.319 z"
   id="path1094" />
		<path
   style="fill:#ffffff"
   d="m 35.082,47.914 c 0,0.848 -0.107,1.595 -0.321,2.242 -0.214,0.647 -0.511,1.185 -0.889,1.613 -0.378,0.428 -0.82,0.752 -1.326,0.971 -0.506,0.219 -1.06,0.328 -1.661,0.328 -0.601,0 -1.155,-0.109 -1.661,-0.328 -0.506,-0.219 -0.948,-0.542 -1.326,-0.971 -0.378,-0.429 -0.675,-0.966 -0.889,-1.613 -0.214,-0.647 -0.321,-1.395 -0.321,-2.242 0,-0.847 0.107,-1.593 0.321,-2.235 0.214,-0.642 0.511,-1.178 0.889,-1.606 0.378,-0.428 0.82,-0.754 1.326,-0.978 0.506,-0.224 1.06,-0.335 1.661,-0.335 0.601,0 1.155,0.111 1.661,0.335 0.506,0.224 0.948,0.549 1.326,0.978 0.378,0.429 0.675,0.964 0.889,1.606 0.214,0.642 0.321,1.387 0.321,2.235 z m -4.238,3.815 c 0.337,0 0.658,-0.066 0.964,-0.198 0.306,-0.132 0.579,-0.349 0.82,-0.649 0.241,-0.3 0.431,-0.695 0.567,-1.183 0.136,-0.488 0.21,-1.082 0.219,-1.784 -0.009,-0.684 -0.08,-1.265 -0.212,-1.743 -0.132,-0.478 -0.314,-0.873 -0.547,-1.183 -0.233,-0.31 -0.497,-0.533 -0.793,-0.67 -0.296,-0.137 -0.608,-0.205 -0.937,-0.205 -0.337,0 -0.658,0.063 -0.964,0.191 -0.306,0.128 -0.579,0.344 -0.82,0.649 -0.241,0.305 -0.431,0.699 -0.567,1.183 -0.137,0.483 -0.21,1.075 -0.219,1.777 0.009,0.684 0.08,1.267 0.212,1.75 0.132,0.483 0.314,0.877 0.547,1.183 0.233,0.306 0.497,0.528 0.793,0.67 0.296,0.142 0.609,0.212 0.937,0.212 z"
   id="path1096" />
		<path
   style="fill:#ffffff"
   d="M 44.68,42.924 V 53 H 43.012 L 39.061,46.055 V 53 H 37.393 V 42.924 h 1.668 l 3.951,6.945 v -6.945 z"
   id="path1098" />
	</g><g
     id="g1110"
     transform="matrix(2.4418026,0,0,2.4418026,82.092648,79.222965)">
		<path
   style="fill:#9777a8"
   d="m 19.5,19 v -4 c 0,-0.551 0.448,-1 1,-1 0.553,0 1,-0.448 1,-1 0,-0.552 -0.447,-1 -1,-1 -1.654,0 -3,1.346 -3,3 v 4 c 0,1.103 -0.897,2 -2,2 -0.553,0 -1,0.448 -1,1 0,0.552 0.447,1 1,1 1.103,0 2,0.897 2,2 v 4 c 0,1.654 1.346,3 3,3 0.553,0 1,-0.448 1,-1 0,-0.552 -0.447,-1 -1,-1 -0.552,0 -1,-0.449 -1,-1 v -4 c 0,-1.2 -0.542,-2.266 -1.382,-3 0.84,-0.734 1.382,-1.8 1.382,-3 z"
   id="path1102" />
		<circle
   style="fill:#9777a8"
   cx="27.5"
   cy="18.5"
   r="1.5"
   id="circle1104" />
		<path
   style="fill:#9777a8"
   d="m 39.5,21 c -1.103,0 -2,-0.897 -2,-2 v -4 c 0,-1.654 -1.346,-3 -3,-3 -0.553,0 -1,0.448 -1,1 0,0.552 0.447,1 1,1 0.552,0 1,0.449 1,1 v 4 c 0,1.2 0.542,2.266 1.382,3 -0.84,0.734 -1.382,1.8 -1.382,3 v 4 c 0,0.551 -0.448,1 -1,1 -0.553,0 -1,0.448 -1,1 0,0.552 0.447,1 1,1 1.654,0 3,-1.346 3,-3 v -4 c 0,-1.103 0.897,-2 2,-2 0.553,0 1,-0.448 1,-1 0,-0.552 -0.447,-1 -1,-1 z"
   id="path1106" />
		<path
   style="fill:#9777a8"
   d="m 27.5,24 c -0.553,0 -1,0.448 -1,1 v 3 c 0,0.552 0.447,1 1,1 0.553,0 1,-0.448 1,-1 v -3 c 0,-0.552 -0.447,-1 -1,-1 z"
   id="path1108" />
	</g></g><g
   id="g1114"
   transform="matrix(2.4418026,0,0,2.4418026,82.092648,79.222965)">
</g><g
   id="g1116"
   transform="matrix(2.4418026,0,0,2.4418026,82.092648,79.222965)">
</g><g
   id="g1118"
   transform="matrix(2.4418026,0,0,2.4418026,82.092648,79.222965)">
</g><g
   id="g1120"
   transform="matrix(2.4418026,0,0,2.4418026,82.092648,79.222965)">
</g><g
   id="g1122"
   transform="matrix(2.4418026,0,0,2.4418026,82.092648,79.222965)">
</g><g
   id="g1124"
   transform="matrix(2.4418026,0,0,2.4418026,82.092648,79.222965)">
</g><g
   id="g1126"
   transform="matrix(2.4418026,0,0,2.4418026,82.092648,79.222965)">
</g><g
   id="g1128"
   transform="matrix(2.4418026,0,0,2.4418026,82.092648,79.222965)">
</g><g
   id="g1130"
   transform="matrix(2.4418026,0,0,2.4418026,82.092648,79.222965)">
</g><g
   id="g1132"
   transform="matrix(2.4418026,0,0,2.4418026,82.092648,79.222965)">
</g><g
   id="g1134"
   transform="matrix(2.4418026,0,0,2.4418026,82.092648,79.222965)">
</g><g
   id="g1136"
   transform="matrix(2.4418026,0,0,2.4418026,82.092648,79.222965)">
</g><g
   id="g1138"
   transform="matrix(2.4418026,0,0,2.4418026,82.092648,79.222965)">
</g><g
   id="g1140"
   transform="matrix(2.4418026,0,0,2.4418026,82.092648,79.222965)">
</g><g
   id="g1142"
   transform="matrix(2.4418026,0,0,2.4418026,82.092648,79.222965)">
</g><style
   type="text/css"
   id="style1182">
	.st0{fill:#F7DF1E;}
</style><g
   id="g1043"
   transform="translate(-863.99926,738.16159)"><rect
     id="XMLID_2_"
     x="930.11084"
     y="76.762558"
     class="st0"
     width="134.01646"
     height="134.01646"
     style="fill:#ffd42a;stroke-width:0.367168" /><path
     id="XMLID_3_"
     d="m 965.35899,188.74893 10.24399,-6.20515 c 1.98271,3.52482 3.78184,6.46216 8.07771,6.46216 4.149,0 6.7559,-1.61554 6.7559,-7.93083 v -42.77512 h 12.59391 v 42.99542 c 0,13.03448 -7.63714,18.9826 -18.79906,18.9826 -10.06041,0 -15.89839,-5.21379 -18.87245,-11.52908"
     style="stroke-width:0.367168" /><path
     id="XMLID_4_"
     d="m 1009.8965,187.3904 10.244,-5.94812 c 2.7171,4.40602 6.2052,7.6371 12.4103,7.6371 5.2138,0 8.555,-2.6069 8.555,-6.20515 0,-4.33259 -3.4146,-5.83798 -9.1792,-8.37144 l -3.1576,-1.35852 c -9.0691,-3.85527 -15.1274,-8.73861 -15.1274,-18.98261 0,-9.43623 7.1965,-16.63273 18.4319,-16.63273 8.0043,0 13.7688,2.79048 17.9178,10.06042 l -9.8034,6.27858 c -2.1663,-3.85527 -4.4794,-5.39738 -8.0777,-5.39738 -3.6717,0 -6.0216,2.34988 -6.0216,5.39738 0,3.78183 2.3499,5.32394 7.7473,7.6371 l 3.1576,1.35852 c 10.7214,4.58961 16.7429,9.25265 16.7429,19.79038 0,11.3455 -8.9222,17.55065 -20.8551,17.55065 -11.7494,0.0734 -19.3131,-5.50753 -22.9848,-12.81418"
     style="stroke-width:0.367168" /></g><style
   type="text/css"
   id="style1200">
	.st0{fill:#9A4993;}
	.st1{fill:#6A1577;}
	.st2{fill:#813084;}
	.st3{fill:#FFFFFF;}
</style><g
   id="g1473"
   transform="matrix(0.47332552,0,0,0.47332552,84.17628,994.01253)">
	<g
   opacity="0.54"
   id="g1446">
		<path
   d="m 207.08,20.2 h 27.55 c 9.35,0 17.51,1.93 24.49,5.8 6.97,3.87 12.33,9.25 16.07,16.13 3.74,6.89 5.61,14.79 5.61,23.72 0,8.93 -1.87,16.83 -5.61,23.72 -3.74,6.89 -9.1,12.26 -16.07,16.13 -6.97,3.87 -15.13,5.8 -24.49,5.8 h -27.55 z m 27.55,80.99 c 10.8,0 19.36,-3.1 25.7,-9.31 6.33,-6.21 9.5,-14.88 9.5,-26.02 0,-11.14 -3.17,-19.81 -9.5,-26.02 -6.33,-6.21 -14.9,-9.31 -25.7,-9.31 H 217.8 v 70.65 h 16.83 z"
   id="path1440" />
		<path
   d="m 297.49,110.75 c -3.74,-1.87 -6.63,-4.44 -8.67,-7.72 -2.04,-3.27 -3.06,-6.99 -3.06,-11.16 0,-6.89 2.59,-12.26 7.78,-16.13 5.18,-3.87 11.73,-5.8 19.64,-5.8 3.91,0 7.54,0.43 10.9,1.28 3.36,0.85 5.93,1.83 7.72,2.93 V 70.2 c 0,-4.85 -1.7,-8.74 -5.1,-11.67 -3.4,-2.93 -7.7,-4.4 -12.88,-4.4 -3.66,0 -7.01,0.79 -10.08,2.36 -3.06,1.57 -5.48,3.76 -7.27,6.57 l -8.16,-6.12 c 2.55,-3.91 6.06,-6.97 10.52,-9.18 4.46,-2.21 9.42,-3.32 14.86,-3.32 8.84,0 15.79,2.32 20.85,6.95 5.06,4.64 7.59,10.95 7.59,18.94 v 41.19 H 331.8 v -9.31 h -0.51 c -1.87,3.15 -4.68,5.82 -8.42,8.03 -3.74,2.21 -7.95,3.32 -12.63,3.32 -4.75,0 -9,-0.94 -12.75,-2.81 z m 23.98,-9.56 c 3.14,-1.87 5.65,-4.38 7.52,-7.52 1.87,-3.14 2.81,-6.59 2.81,-10.33 -2.04,-1.36 -4.55,-2.47 -7.52,-3.32 -2.98,-0.85 -6.12,-1.28 -9.44,-1.28 -5.95,0 -10.44,1.23 -13.45,3.7 -3.02,2.47 -4.53,5.66 -4.53,9.56 0,3.57 1.36,6.46 4.08,8.67 2.72,2.21 6.16,3.32 10.33,3.32 3.65,0 7.06,-0.93 10.2,-2.8 z"
   id="path1442" />
		<path
   d="m 353.57,47.5 h 10.33 v 10.33 h 0.51 c 1.53,-3.83 4.12,-6.8 7.78,-8.93 3.65,-2.12 7.65,-3.19 11.99,-3.19 1.87,0 3.44,0.13 4.72,0.38 v 11.1 c -1.45,-0.34 -3.4,-0.51 -5.87,-0.51 -5.53,0 -10.01,1.83 -13.45,5.48 -3.44,3.66 -5.17,8.42 -5.17,14.28 v 36.09 h -10.84 z m 67.32,64.76 c -2.25,-0.86 -4.14,-2.03 -5.68,-3.51 -1.7,-1.64 -2.98,-3.55 -3.83,-5.71 -0.85,-2.16 -1.28,-4.8 -1.28,-7.92 V 56.3 H 398.75 V 46.48 H 410.1 V 28.12 h 10.84 v 18.36 h 15.81 v 9.82 h -15.81 v 36.24 c 0,3.65 0.68,6.34 2.04,8.08 1.61,1.91 3.95,2.87 7.01,2.87 2.46,0 4.85,-0.72 7.14,-2.17 v 10.59 c -1.28,0.59 -2.57,1.02 -3.89,1.28 -1.32,0.26 -3,0.38 -5.04,0.38 -2.61,-0.01 -5.05,-0.45 -7.31,-1.31 z"
   id="path1444" />
	</g>
	<g
   id="g1471">
		<path
   fill="#01579b"
   d="M 29.64,108.94 6.36,85.66 C 3.6,82.82 1.88,78.82 1.88,74.91 1.88,73.1 2.9,70.27 3.67,68.64 L 25.16,23.87 Z"
   id="path1448" />
		<path
   fill="#40c4ff"
   d="M 109.34,28.35 86.06,5.07 C 84.03,3.03 79.79,0.59 76.21,0.59 c -3.08,0 -6.1,0.62 -8.06,1.79 L 25.17,23.87 Z"
   id="path1450" />
		<polygon
   fill="#40c4ff"
   points="113.82,136.7 113.82,112.52 71.73,99.09 33.23,112.52 57.4,136.7 "
   id="polygon1452" />
		<path
   fill="#29b6f6"
   d="m 25.17,96.41 c 0,7.18 0.9,8.95 4.48,12.54 l 3.58,3.58 h 80.59 L 74.42,67.76 25.17,23.88 Z"
   id="path1454" />
		<path
   fill="#01579b"
   d="M 96.8,23.87 H 25.16 l 88.65,88.65 h 24.18 V 57 L 109.34,28.35 c -4.02,-4.04 -7.6,-4.48 -12.54,-4.48 z"
   id="path1456" />
		<path
   opacity="0.2"
   fill="#ffffff"
   enable-background="new    "
   d="m 30.54,109.84 c -3.58,-3.6 -4.48,-7.14 -4.48,-13.43 V 24.77 l -0.9,-0.9 V 96.4 c 0.01,6.3 0.01,8.04 5.38,13.44 l 2.69,2.69 v 0 z"
   id="path1458" />
		<polygon
   opacity="0.2"
   fill="#263238"
   enable-background="new    "
   points="137.1,111.63 112.92,111.63 113.82,112.52 138,112.52 138,57.01 137.1,56.11 "
   id="polygon1460" />
		<path
   opacity="0.2"
   fill="#ffffff"
   enable-background="new    "
   d="M 109.34,28.35 C 104.9,23.91 101.26,23.87 95.91,23.87 H 25.17 l 0.9,0.9 h 69.85 c 2.66,0 9.41,-0.45 13.42,3.58 z"
   id="path1462" />

			<radialGradient
   id="SVGID_1_"
   cx="69.955002"
   cy="60.886398"
   r="68.065002"
   gradientTransform="matrix(1,0,0,-1,0,129.5328)"
   gradientUnits="userSpaceOnUse">
			<stop
   offset="0"
   style="stop-color:#FFFFFF;stop-opacity:0.1"
   id="stop1464" />
			<stop
   offset="1"
   style="stop-color:#FFFFFF;stop-opacity:0"
   id="stop1466" />
		</radialGradient>
		<path
   opacity="0.2"
   fill="url(#SVGID_1_)"
   enable-background="new    "
   d="M 137.1,56.11 109.34,28.35 86.06,5.07 C 84.03,3.03 79.79,0.59 76.21,0.59 c -3.08,0 -6.1,0.62 -8.06,1.79 L 25.17,23.87 3.68,68.64 c -0.77,1.63 -1.79,4.46 -1.79,6.27 0,3.91 1.72,7.91 4.48,10.75 l 21.46,21.3 c 0.51,0.63 1.11,1.27 1.83,1.98 l 0.9,0.9 2.69,2.69 23.28,23.28 0.9,0.9 h 55.52 0.9 v -24.18 h 24.18 v -0.06 -55.46 z"
   id="path1469"
   style="fill:url(#SVGID_1_)" />
	</g>
</g><path
   d="m 718.02888,840.13577 -5.9637,-3.6951 c -0.05,-0.58143 -0.1073,-1.16151 -0.1698,-1.73887 l 5.1351,-4.78188 c 0.5216,-0.48634 0.7553,-1.20634 0.614,-1.90189 -0.1372,-0.69962 -0.6276,-1.27562 -1.2946,-1.52151 l -6.5616,-2.44528 c -0.1643,-0.56785 -0.3369,-1.13162 -0.5135,-1.69811 l 4.0891,-5.6785 c 0.417,-0.57735 0.5026,-1.3286 0.2309,-1.98339 -0.2717,-0.65615 -0.8653,-1.12619 -1.5622,-1.24166 l -6.9147,-1.12483 c -0.269,-0.52438 -0.5489,-1.04061 -0.8314,-1.54868 l 2.9071,-6.38491 c 0.2975,-0.64936 0.2364,-1.39924 -0.1603,-1.99698 -0.3953,-0.5923 -1.065,-0.93872 -1.7796,-0.91155 l -7.0234,0.24453 c -0.3627,-0.45373 -0.7322,-0.90339 -1.1085,-1.3449 l 1.6166,-6.83321 c 0.163,-0.69419 -0.042,-1.42642 -0.5475,-1.92906 -0.5013,-0.50264 -1.2294,-0.71049 -1.929,-0.54747 l -6.8333,1.61661 c -0.4428,-0.37495 -0.8925,-0.74582 -1.3476,-1.10853 l 0.2459,-7.0234 c 0.027,-0.71049 -0.3192,-1.38566 -0.9115,-1.77962 -0.5937,-0.39668 -1.3449,-0.45645 -1.997,-0.16166 l -6.3713,2.90717 c -0.5149,-0.28257 -1.0311,-0.56242 -1.5487,-0.83276 l -1.1276,-6.91471 c -0.1141,-0.70099 -0.58411,-1.296 -1.24161,-1.56227 -0.6562,-0.27306 -1.4129,-0.18475 -1.9834,0.23094 l -5.67848,4.08906 c -0.5597,-0.17796 -1.1221,-0.34913 -1.6845,-0.51215 l -2.44531,-6.56151 c -0.2486,-0.66838 -0.8246,-1.15879 -1.5215,-1.29736 -0.6983,-0.13721 -1.4129,0.0951 -1.9019,0.61404 l -4.7819,5.13509 c -0.5774,-0.0638 -1.1588,-0.12226 -1.7389,-0.16981 l -3.6951,-5.97736 c -0.3736,-0.60452 -1.0351,-0.97267 -1.7524,-0.97267 -0.7173,0 -1.3721,0.36815 -1.7389,0.97267 l -3.6951,5.97736 c -0.5814,0.0476 -1.1629,0.10597 -1.7389,0.16981 l -4.7818,-5.13509 c -0.485,-0.51894 -1.205,-0.75125 -1.9019,-0.61404 -0.6997,0.13993 -1.2757,0.62898 -1.5215,1.29736 l -2.4453,6.56151 c -0.5679,0.16302 -1.1303,0.33555 -1.6846,0.51215 l -5.6784,-4.08906 c -0.5774,-0.41705 -1.33,-0.50535 -1.9834,-0.23094 -0.6562,0.2717 -1.1276,0.86672 -1.2417,1.56227 l -1.1275,6.91471 c -0.5217,0.27034 -1.0379,0.54883 -1.5487,0.83276 l -6.3713,-2.90717 c -0.648,-0.29615 -1.3993,-0.23502 -1.997,0.16166 -0.5923,0.39396 -0.9387,1.06913 -0.9116,1.77962 l 0.2446,7.0234 c -0.4538,0.36271 -0.9034,0.73358 -1.3477,1.10853 l -6.8332,-1.61661 c -0.6942,-0.16166 -1.4264,0.0448 -1.929,0.54747 -0.5054,0.504 -0.7105,1.2308 -0.5475,1.92906 l 1.603,6.83321 c -0.3736,0.44287 -0.7431,0.89117 -1.1058,1.3449 l -7.0234,-0.24453 c -0.7078,-0.0204 -1.3857,0.31925 -1.7796,0.91155 -0.3967,0.58959 -0.4565,1.34491 -0.1617,1.99698 l 2.9072,6.38491 c -0.2826,0.51215 -0.5624,1.02838 -0.8328,1.54868 l -6.9147,1.12483 c -0.7023,0.11411 -1.2946,0.58415 -1.5622,1.24166 -0.2717,0.65887 -0.1834,1.41283 0.2309,1.98339 l 4.0891,5.6785 c -0.178,0.56105 -0.3505,1.12483 -0.5136,1.69811 l -6.5615,2.44528 c -0.6656,0.24861 -1.156,0.82461 -1.2946,1.52151 -0.1386,0.69827 0.094,1.41283 0.614,1.90189 l 5.1351,4.78188 c -0.064,0.57736 -0.1209,1.1588 -0.1698,1.73887 l -5.9638,3.6951 c -0.6045,0.37358 -0.9726,1.03381 -0.9726,1.75245 0,0.71864 0.3681,1.37208 0.9726,1.73887 l 5.9638,3.69509 c 0.049,0.58144 0.106,1.16151 0.1698,1.73887 l -5.1351,4.78189 c -0.5203,0.48498 -0.7526,1.20498 -0.614,1.90188 0.1386,0.69963 0.629,1.27427 1.2946,1.52151 l 6.5615,2.44529 c 0.1631,0.56784 0.3356,1.13162 0.5136,1.69811 l -4.0891,5.67849 c -0.4157,0.57872 -0.504,1.32996 -0.2309,1.9834 0.273,0.65886 0.8667,1.1289 1.5758,1.24165 l 6.9147,1.12483 c 0.2704,0.52438 0.5475,1.04061 0.8328,1.54868 l -2.9072,6.37132 c -0.2961,0.648 -0.235,1.39925 0.1617,1.99698 0.3966,0.59366 1.0718,0.94008 1.7796,0.91155 l 7.0098,-0.24589 c 0.3654,0.45646 0.7336,0.9034 1.1085,1.34763 l -1.603,6.8332 c -0.163,0.69283 0.042,1.41283 0.5475,1.91548 0.5013,0.50671 1.2308,0.70913 1.929,0.54611 l 6.8332,-1.60302 c 0.4443,0.37766 0.8939,0.74445 1.3477,1.10581 l -0.2446,7.0234 c -0.027,0.71049 0.3193,1.38566 0.9116,1.77962 0.5896,0.39532 1.3449,0.45509 1.997,0.15894 l 6.3713,-2.90717 c 0.5135,0.28529 1.0297,0.56242 1.5487,0.83276 l 1.1275,6.91472 c 0.1141,0.70369 0.5842,1.29871 1.2417,1.57584 0.6561,0.27306 1.4128,0.18476 1.9834,-0.22958 l 5.6785,-4.08906 c 0.561,0.17796 1.1248,0.35185 1.6981,0.51487 l 2.4453,6.56151 c 0.2486,0.66566 0.8246,1.15879 1.5215,1.29464 0.6982,0.14128 1.4128,-0.0924 1.9019,-0.61404 l 4.7818,-5.13509 c 0.5774,0.0666 1.1588,0.12226 1.7389,0.17389 l 3.6951,5.96377 c 0.3722,0.60181 1.0338,0.97268 1.7389,0.97268 0.705,0 1.372,-0.36951 1.7524,-0.97268 l 3.6951,-5.96377 c 0.5815,-0.0516 1.1615,-0.10732 1.7389,-0.17389 l 4.7819,5.13509 c 0.485,0.52166 1.205,0.75532 1.9019,0.61404 0.6996,-0.13721 1.2756,-0.62898 1.5215,-1.29464 l 2.44531,-6.56151 c 0.5678,-0.16302 1.1316,-0.33691 1.6981,-0.51487 l 5.67848,4.08906 c 0.5773,0.41434 1.3299,0.50264 1.9834,0.22958 0.6575,-0.27034 1.12751,-0.86671 1.24161,-1.57584 l 1.1276,-6.91472 c 0.5216,-0.27034 1.0379,-0.55155 1.5486,-0.83276 l 6.3714,2.90717 c 0.648,0.29615 1.3992,0.23638 1.9969,-0.15894 0.5923,-0.39668 0.9374,-1.06913 0.9116,-1.77962 l -0.2445,-7.0234 c 0.4537,-0.36272 0.9034,-0.72815 1.3462,-1.10581 l 6.8332,1.60302 c 0.6942,0.16302 1.4265,-0.0394 1.9291,-0.54611 0.5054,-0.504 0.7105,-1.22808 0.5475,-1.91548 l -1.6031,-6.8332 c 0.375,-0.44423 0.7445,-0.89117 1.1059,-1.34763 l 7.0234,0.24589 c 0.7077,0.0285 1.3856,-0.31789 1.7796,-0.91155 0.3967,-0.5923 0.4578,-1.34626 0.1603,-1.99698 l -2.9072,-6.37132 c 0.2839,-0.51487 0.5624,-1.03109 0.8314,-1.54868 l 6.9147,-1.12483 c 0.7037,-0.11275 1.296,-0.58279 1.5623,-1.24165 0.2717,-0.65616 0.1861,-1.41283 -0.231,-1.9834 l -4.089,-5.67849 c 0.1766,-0.56106 0.3491,-1.12483 0.5135,-1.69811 l 6.5615,-2.44529 c 0.667,-0.24996 1.1588,-0.8246 1.2946,-1.52151 0.1413,-0.69826 -0.092,-1.41283 -0.614,-1.90188 l -5.1351,-4.78189 c 0.062,-0.57736 0.1196,-1.15879 0.1698,-1.73887 l 5.9638,-3.69509 c 0.6045,-0.37223 0.9727,-1.03381 0.9727,-1.73887 0,-0.70506 -0.3668,-1.37208 -0.9713,-1.75245 z m -39.9396,49.5849 c -2.28221,-0.49178 -3.72221,-2.74415 -3.23321,-5.02642 0.4877,-2.28226 2.73061,-3.73585 5.01281,-3.24679 2.2823,0.4877 3.7359,2.74415 3.2468,5.02642 -0.489,2.28226 -2.7305,3.73584 -5.0128,3.24679 z m -2.02411,-13.72076 c -2.0785,-0.44558 -4.1298,0.87759 -4.5646,2.96151 l -2.11918,9.88981 c -6.53431,2.96151 -13.85661,4.61887 -21.46421,4.61887 -7.8249,0 -15.2151,-1.72528 -21.8717,-4.82264 l -2.1192,-9.88981 c -0.4456,-2.07849 -2.486,-3.40981 -4.5645,-2.96151 l -8.7351,1.87472 c -1.6166,-1.67095 -3.1246,-3.45057 -4.5102,-5.32529 h 42.5207 c 0.4809,0 0.8016,-0.0869 0.8016,-0.52437 v -15.07924 c 0,-0.43744 -0.3207,-0.52438 -0.8016,-0.52438 h -12.4301 v -9.52302 h 13.4354 c 1.2267,0 6.5615,0.35049 8.2596,7.17283 0.5339,2.09207 1.7117,8.9117 2.5133,11.09887 0.7987,2.44528 4.0483,7.33584 7.51241,7.33584 h 21.19249 c 0.2404,0 0.4972,-0.0272 0.7675,-0.0761 -1.4672,1.99698 -3.0838,3.88528 -4.809,5.65132 l -8.93891,-1.91547 z m -58.82269,13.51698 c -2.2822,0.49178 -4.5237,-0.96181 -5.0128,-3.24679 -0.4877,-2.28226 0.9618,-4.53736 3.2468,-5.02641 2.2823,-0.4877 4.5238,0.96588 5.0128,3.24679 0.4877,2.28226 -0.9632,4.53736 -3.2468,5.02641 z m -16.166,-65.34339 c 0.9455,2.13283 -0.016,4.63246 -2.1464,5.5834 -2.1329,0.94687 -4.6189,-0.0163 -5.5698,-2.14642 -0.951,-2.13011 0.016,-4.63245 2.1464,-5.58339 2.1328,-0.94551 4.6188,0.0163 5.5698,2.14641 z m -4.9585,11.73736 9.1019,-4.0483 c 1.9426,-0.86264 2.8256,-3.13811 1.9562,-5.08076 l -1.8747,-4.23849 h 7.363 v 33.14717 h -14.8075 c -1.2892,-4.53735 -1.9834,-9.31924 -1.9834,-14.26415 0,-1.8883 0.1019,-3.74943 0.2975,-5.58339 z m 39.9396,-3.21962 v -9.78113 h 17.5245 c 0.9062,0 6.3985,1.04739 6.3985,5.14868 0,3.40981 -4.2113,4.63245 -7.6754,4.63245 h -16.3019 z m 63.7132,8.80302 c 0,1.29871 -0.048,2.58113 -0.1426,3.85811 h -5.3389 c -0.5339,0 -0.7485,0.35049 -0.7485,0.87351 v 2.44528 c 0,5.76 -3.2468,7.0234 -6.0996,7.33585 -2.717,0.30566 -5.7193,-1.1357 -6.0861,-2.79849 -1.603,-9.00679 -4.2656,-10.92226 -8.47701,-14.26415 5.23021,-3.31472 10.66421,-8.21887 10.66421,-14.80755 0,-7.07773 -4.8498,-11.53358 -8.15091,-13.72075 -4.6461,-3.05661 -9.78119,-3.66793 -11.16679,-3.66793 h -55.1548 c 7.4853,-8.34113 17.6604,-14.26415 29.0717,-16.43773 l 6.5072,6.81962 c 1.4672,1.5351 3.8989,1.60302 5.4476,0.12498 l 7.2815,-6.95547 c 15.21509,2.83925 28.1207,12.32151 35.5924,25.40377 l -4.9856,11.24831 c -0.86,1.94264 0.018,4.2249 1.9562,5.08075 l 9.5909,4.26566 c 0.1658,1.69811 0.2527,3.4234 0.2527,5.16227 z m -55.1547,-56.92076 c 1.6845,-1.6166 4.3608,-1.54868 5.9638,0.13721 1.603,1.68453 1.5487,4.36075 -0.1399,5.97736 -1.6846,1.6166 -4.3608,1.54868 -5.9638,-0.13857 -1.603,-1.68453 -1.5487,-4.36075 0.1399,-5.97736 z m 49.4491,39.80378 c 0.9441,-2.13283 3.437,-3.09736 5.5698,-2.14642 2.1328,0.94551 3.0973,3.45057 2.1464,5.5834 -0.9442,2.13283 -3.437,3.09736 -5.5698,2.14641 -2.1328,-0.94551 -3.0974,-3.45056 -2.1464,-5.58339 z"
   id="path2411"
   style="stroke-width:1.35849" /><text
   xml:space="preserve"
   style="font-weight:bold;font-size:40px;line-height:1.25;font-family:Audiowide;-inkscape-font-specification:'Audiowide Bold'"
   x="404.61807"
   y="1143.5073"
   id="text2422"><tspan
     sodipodi:role="line"
     x="404.61807"
     y="1143.5073"
     id="tspan2424">And much more ...</tspan></text><g
   id="g2835"
   transform="translate(166.00906,-20.497038)"><path
     style="clip-rule:evenodd;fill:#e9e9e0;fill-rule:evenodd;stroke-width:2.4418;stroke-linejoin:round;stroke-miterlimit:1.41421"
     d="m 357.84605,67.656271 h -70.866 c -1.97297,0 -3.57236,1.599381 -3.57236,4.702912 V 201.95542 c 0,0.84242 1.59939,2.4418 3.57236,2.4418 h 97.8528 c 1.97298,0 3.57236,-1.59938 3.57236,-2.4418 V 99.345986 c 0,-1.6995 -0.22709,-2.24646 -0.62755,-2.64936 L 359.36485,68.283814 c -0.4029,-0.400455 -0.94986,-0.627543 -1.5188,-0.627543 z"
     id="path1086-1" /><path
     style="clip-rule:evenodd;fill:#ffcc00;fill-rule:evenodd;stroke-width:2.4418;stroke-linejoin:round;stroke-miterlimit:1.41421"
     d="m 384.83285,204.39722 h -97.8528 c -1.97297,0 -3.57236,-1.59938 -3.57236,-3.57236 v -37.93828 h 104.99752 v 37.93828 c 0,1.97298 -1.59938,3.57236 -3.57236,3.57236 z"
     id="path1090-9" /><text
     xml:space="preserve"
     style="font-style:normal;font-variant:normal;font-weight:bold;font-stretch:normal;font-size:37.0435px;line-height:1.25;font-family:monospace;-inkscape-font-specification:'monospace Bold';fill:#fff6d5;stroke-width:0.926087"
     x="291.97159"
     y="197.63864"
     id="text2555"><tspan
       sodipodi:role="line"
       id="tspan2553"
       x="291.97159"
       y="197.63864"
       style="stroke-width:0.926087">YAML</tspan></text><text
     xml:space="preserve"
     style="font-style:normal;font-variant:normal;font-weight:bold;font-stretch:normal;font-size:9.02733px;line-height:1.25;font-family:'Fira Code';-inkscape-font-specification:'Fira Code Bold';fill:#d4aa00;stroke-width:0.225684"
     x="294.56601"
     y="85.847992"
     id="text2559"><tspan
       sodipodi:role="line"
       id="tspan2557"
       x="294.56601"
       y="85.847992"
       style="fill:#d4aa00;stroke-width:0.225684">xmas: true</tspan><tspan
       sodipodi:role="line"
       x="294.56601"
       y="97.132156"
       id="tspan2561"
       style="fill:#d4aa00;stroke-width:0.225684"> french-hens: 3</tspan><tspan
       sodipodi:role="line"
       x="294.56601"
       y="108.41632"
       id="tspan2563"
       style="fill:#d4aa00;stroke-width:0.225684"> calling-birds:</tspan><tspan
       sodipodi:role="line"
       x="294.56601"
       y="119.70048"
       id="tspan2565"
       style="fill:#d4aa00;stroke-width:0.225684">   - huey</tspan><tspan
       sodipodi:role="line"
       x="294.56601"
       y="130.98465"
       id="tspan2567"
       style="fill:#d4aa00;stroke-width:0.225684">   - dewey</tspan><tspan
       sodipodi:role="line"
       x="294.56601"
       y="142.26881"
       id="tspan2569"
       style="fill:#d4aa00;stroke-width:0.225684">   - louie</tspan><tspan
       sodipodi:role="line"
       x="294.56601"
       y="153.55296"
       id="tspan2571"
       style="fill:#d4aa00;stroke-width:0.225684">   - fred</tspan></text><polygon
     style="clip-rule:evenodd;fill:#d9d7ca;fill-rule:evenodd;stroke-linejoin:round;stroke-miterlimit:1.41421"
     points="37.5,0.151 37.5,12 49.349,12 "
     id="polygon1088-5"
     transform="matrix(2.4418026,0,0,2.4418026,267.53598,67.656271)" /></g><style
   type="text/css"
   id="style2573">
	.st0{fill:#93D500;}
	.st1{fill:#4D5A31;}
	.st2{fill:#6BA43A;}
	.st3{fill:#424143;}
</style><path
   style="fill:none;stroke:#000000;stroke-width:3;stroke-linecap:butt;stroke-linejoin:miter;stroke-miterlimit:1.41421;stroke-dasharray:none;stroke-opacity:1;marker-end:url(#marker7599)"
   d="m 283.94388,264.71141 48.84476,106.72883"
   id="path1045"
   sodipodi:nodetypes="cc" /><path
   style="fill:none;stroke:#000000;stroke-width:3;stroke-linecap:butt;stroke-linejoin:miter;stroke-miterlimit:1.41421;stroke-dasharray:none;stroke-opacity:1;marker-end:url(#marker6439)"
   d="M 574.89716,326.37159 514.86722,392.011"
   id="path1343"
   sodipodi:nodetypes="cc" /><path
   style="fill:none;stroke:#000000;stroke-width:3;stroke-linecap:butt;stroke-linejoin:miter;stroke-miterlimit:1.41421;stroke-dasharray:none;stroke-opacity:1;marker-end:url(#marker6659)"
   d="m 278.1036,697.66604 -64.87832,98.44784"
   id="path1345"
   sodipodi:nodetypes="cc" /><path
   style="fill:none;stroke:#000000;stroke-width:3;stroke-linecap:butt;stroke-linejoin:miter;stroke-miterlimit:1.41421;stroke-dasharray:none;stroke-opacity:1;marker-end:url(#marker6885)"
   d="M 352.19879,721.05607 267.72722,970.93935"
   id="path1347"
   sodipodi:nodetypes="cc" /><path
   style="fill:none;stroke:#000000;stroke-width:3;stroke-linecap:butt;stroke-linejoin:miter;stroke-miterlimit:1.41421;stroke-dasharray:none;stroke-opacity:1;marker-end:url(#marker7355)"
   d="m 513.95905,693.60619 63.22253,96.94535"
   id="path1349"
   sodipodi:nodetypes="cc" /><path
   style="fill:none;stroke:#000000;stroke-width:3;stroke-linecap:butt;stroke-linejoin:miter;stroke-miterlimit:1.41421;stroke-dasharray:none;stroke-opacity:1;marker-end:url(#marker7117)"
   d="m 447.48817,722.33664 36.29804,183.8904"
   id="path1351"
   sodipodi:nodetypes="cc" /><style
   type="text/css"
   id="style11317">
	.st0{fill:#9A4993;}
	.st1{fill:#6A1577;}
	.st2{fill:#813084;}
	.st3{fill:#FFFFFF;}
</style><g
   id="g11347"
   transform="matrix(0.33832188,0,0,0.33832188,412.35965,889.34198)"><path
     id="XMLID_3_-3"
     class="st0"
     d="m 531.6,221.8 c 0,-7.9 -1.7,-15.1 -5.2,-21.1 -3.4,-6 -8.5,-10.9 -15.2,-14.8 C 455,153.5 398.7,121.1 342.5,88.7 327.3,80 312.7,80.2 297.6,89.1 c -22.4,13.1 -134.5,77.4 -167.8,96.8 -13.8,7.9 -20.4,20.2 -20.4,36 0,65.2 0,130.5 0,195.7 0,7.8 1.7,14.7 4.9,20.7 3.4,6.1 8.6,11.3 15.5,15.4 33.4,19.4 145.4,83.5 167.8,96.8 15.1,8.8 29.8,9.2 44.9,0.4 56.2,-32.5 112.5,-64.8 168.7,-97.2 7,-4 12.1,-9.1 15.5,-15.4 3.3,-6 4.9,-12.9 4.9,-20.7 0,-0.2 0,-130.7 0,-195.8" /><path
     id="XMLID_4_-6"
     class="st1"
     d="M 321,318.9 114,438.1 c 3.4,6.1 8.6,11.3 15.5,15.4 33.5,19.3 145.5,83.5 167.8,96.8 15.1,8.8 29.8,9.2 44.9,0.4 56.2,-32.5 112.5,-64.8 168.7,-97.2 7,-4 12.1,-9.1 15.5,-15.4 L 321,318.9" /><path
     id="XMLID_5_"
     class="st1"
     d="m 259.7,354.2 c 12.1,21.1 34.7,35.3 60.6,35.3 26.1,0 48.9,-14.3 60.9,-35.6 l -60.2,-35 -61.3,35.3" /><path
     id="XMLID_6_"
     class="st2"
     d="m 531.6,221.8 c 0,-7.9 -1.7,-15.1 -5.2,-21.1 L 321,318.9 526.7,438.1 c 3.3,-6 4.9,-12.9 4.9,-20.7 0,0 0,-130.5 0,-195.6" /><path
     id="XMLID_9_"
     class="st3"
     d="m 381.3,353.8 c -12,21.2 -34.7,35.6 -60.9,35.6 -26,0 -48.7,-14.2 -60.6,-35.3 -5.9,-10.3 -9.2,-22 -9.2,-34.6 0,-38.6 31.2,-69.9 69.9,-69.9 25.8,0 48.3,14.1 60.4,34.9 l 61,-35.1 c -24.3,-41.9 -69.6,-70.1 -121.5,-70.1 -77.5,0 -140.2,62.8 -140.2,140.2 0,25.4 6.8,49.3 18.6,69.9 24.2,42 69.7,70.4 121.8,70.4 52.2,0 97.7,-28.5 121.9,-70.8 l -61.2,-35.2" /><g
     id="XMLID_32_">
	<rect
   id="XMLID_2_-7"
   x="444.5"
   y="286.39999"
   class="st3"
   width="13.9"
   height="67.300003" />
	<rect
   id="XMLID_30_"
   x="475.29999"
   y="286.39999"
   class="st3"
   width="13.9"
   height="67.300003" />
	<rect
   id="XMLID_31_"
   x="433.29999"
   y="297.70001"
   class="st3"
   width="67.300003"
   height="13.9" />
	<rect
   id="XMLID_23_"
   x="433.29999"
   y="328.39999"
   class="st3"
   width="67.300003"
   height="13.9" />
</g></g><style
   type="text/css"
   id="style1369">
	.st0{fill:#93D500;}
	.st1{fill:#4D5A31;}
	.st2{fill:#6BA43A;}
	.st3{fill:#424143;}
</style><g
   id="g1469"
   transform="matrix(0.84345342,0,0,0.84345342,48.951237,157.03045)">
	<g
   id="g1429">
		<g
   id="g1425">
			<path
   class="st0"
   d="M 32.601,67.409 H 32.488 3.044 c 0.005,0.144 0.009,0.289 0.017,0.433 0.012,0.278 0.032,0.555 0.049,0.833 0.008,0.119 0.013,0.238 0.022,0.356 0.023,0.322 0.051,0.642 0.08,0.962 0.007,0.073 0.013,0.145 0.02,0.215 0.034,0.356 0.073,0.712 0.115,1.065 0.002,0.035 0.006,0.069 0.011,0.103 0.046,0.382 0.095,0.764 0.151,1.144 0,0.004 10e-4,0.01 0.003,0.014 0.339,2.356 0.848,4.69 1.527,6.984 0.003,0.01 0.007,0.019 0.009,0.029 0.106,0.361 0.218,0.72 0.333,1.077 0.007,0.021 0.014,0.042 0.02,0.063 0.006,0.021 0.013,0.042 0.02,0.063 0.105,0.323 0.215,0.645 0.325,0.968 0.029,0.081 0.056,0.163 0.086,0.244 0.099,0.279 0.2,0.558 0.304,0.837 0.048,0.126 0.096,0.251 0.143,0.378 0.09,0.231 0.179,0.46 0.27,0.691 0.069,0.173 0.141,0.346 0.213,0.519 0.074,0.18 0.15,0.359 0.226,0.54 0.094,0.22 0.192,0.439 0.289,0.658 0.058,0.131 0.117,0.261 0.175,0.391 0.12,0.263 0.244,0.526 0.368,0.787 0.041,0.084 0.08,0.168 0.122,0.252 0.145,0.301 0.293,0.599 0.443,0.895 0.025,0.046 0.047,0.091 0.07,0.137 0.169,0.328 0.341,0.656 0.518,0.981 0.008,0.014 0.016,0.028 0.023,0.044 0.037,0.068 0.078,0.133 0.115,0.2 l 25.243,-15.207 0.093,-0.056 c -0.996,-2.1 -1.616,-4.332 -1.846,-6.6 z"
   id="path1371" />
			<polygon
   class="st0"
   points="5.402,80.689 4.44,80.962 4.448,80.989 "
   id="polygon1373" />
			<path
   class="st1"
   d="m 39.865,80.977 -0.071,0.071 -20.819,20.82 c 0.107,0.1 0.213,0.201 0.323,0.298 0.194,0.176 0.392,0.351 0.589,0.523 0.102,0.091 0.202,0.181 0.304,0.269 0.236,0.204 0.474,0.403 0.711,0.602 0.065,0.054 0.128,0.107 0.192,0.16 0.267,0.221 0.539,0.438 0.812,0.654 0.035,0.027 0.07,0.055 0.105,0.083 0.295,0.232 0.593,0.458 0.894,0.686 0.013,0.008 0.024,0.016 0.034,0.025 1.254,0.937 2.554,1.815 3.895,2.633 0.046,0.029 0.092,0.056 0.139,0.085 0.255,0.153 0.51,0.304 0.767,0.453 0.157,0.09 0.314,0.179 0.471,0.268 0.148,0.086 0.296,0.168 0.446,0.251 0.27,0.148 0.542,0.295 0.814,0.439 0.037,0.02 0.075,0.04 0.113,0.06 0.757,0.396 1.527,0.764 2.303,1.118 v 0 l 0.739,-1.794 10.469,-25.431 0.039,-0.094 c -1.142,-0.609 -2.238,-1.334 -3.269,-2.179 z"
   id="path1375" />
			<path
   class="st2"
   d="m 37.697,78.904 c -0.225,-0.25 -0.439,-0.506 -0.649,-0.765 -0.186,-0.23 -0.366,-0.462 -0.54,-0.697 -0.199,-0.27 -0.394,-0.541 -0.578,-0.818 -0.186,-0.278 -0.368,-0.558 -0.54,-0.843 L 10.114,91.006 c 0.388,0.645 0.793,1.273 1.206,1.894 0.014,0.021 0.027,0.044 0.041,0.065 v 0 c 0.005,0.008 0.01,0.015 0.015,0.023 0.014,0.02 0.026,0.042 0.04,0.063 10e-4,0.002 0.003,0.004 0.004,0.006 0.033,0.05 0.067,0.098 0.101,0.148 0.002,0.003 0.004,0.006 0.006,0.009 v 0 c 0.001,0.001 0.002,0.003 0.003,0.004 0.439,0.649 0.89,1.288 1.355,1.91 0.01,0.013 0.021,0.027 0.031,0.04 0.01,0.013 0.02,0.026 0.03,0.039 0.202,0.268 0.405,0.535 0.614,0.8 0.027,0.035 0.054,0.069 0.083,0.103 0.214,0.274 0.432,0.544 0.654,0.812 0.052,0.063 0.106,0.127 0.158,0.191 0.2,0.239 0.4,0.477 0.604,0.713 0.087,0.101 0.178,0.202 0.266,0.302 0.174,0.198 0.346,0.395 0.524,0.59 0.097,0.107 0.198,0.215 0.297,0.322 0.045,0.049 0.089,0.097 0.135,0.146 0.13,0.14 0.259,0.28 0.39,0.419 0.052,0.055 0.107,0.109 0.16,0.164 0.23,0.24 0.462,0.48 0.699,0.716 l 20.85,-20.85 c -0.238,-0.239 -0.462,-0.484 -0.683,-0.731 z"
   id="path1377" />
			<path
   class="st1"
   d="m 65.334,80.966 c -0.229,0.185 -0.461,0.366 -0.697,0.54 l 0.052,0.087 15.202,25.235 c 0.704,-0.46 1.4,-0.934 2.08,-1.432 1.471,-1.085 2.895,-2.261 4.267,-3.527 L 65.416,81.048 Z"
   id="path1379" />
			<path
   class="st0"
   d="m 77.97,108.03 c 0.011,-0.006 0.023,-0.013 0.034,-0.019 l -0.001,-10e-4 c -0.011,0.007 -0.022,0.013 -0.033,0.02 z"
   id="path1381" />
			<polygon
   class="st0"
   points="77.956,108.038 77.955,108.039 77.956,108.039 "
   id="polygon1383" />
			<path
   class="st0"
   d="m 78.003,108.01 v 0 c 0.067,-0.036 0.134,-0.071 0.2,-0.11 l -0.004,-0.007 c -0.066,0.039 -0.131,0.078 -0.196,0.117 z"
   id="path1385" />
			<polygon
   class="st0"
   points="77.97,108.03 77.961,108.035 "
   id="polygon1387" />
			<polygon
   class="st0"
   points="77.919,107.976 77.955,108.039 77.956,108.038 "
   id="polygon1389" />
			<path
   class="st0"
   d="m 77.97,108.03 v 0 c 0.012,-0.006 0.023,-0.012 0.034,-0.018 v 0 c -0.011,0.005 -0.023,0.012 -0.034,0.018 z"
   id="path1391" />
			<polygon
   class="st0"
   points="77.951,108.042 77.951,108.041 77.942,108.046 "
   id="polygon1393" />
			<polygon
   class="st0"
   points="77.955,108.039 77.951,108.041 77.951,108.042 77.956,108.039 "
   id="polygon1395" />
			<path
   class="st0"
   d="m 77.961,108.035 c -0.002,0.001 -0.004,0.002 -0.006,0.003 v 0 c 0.005,-0.003 0.01,-0.005 0.015,-0.008 v -0.001 c -0.003,0.003 -0.006,0.004 -0.009,0.006 z"
   id="path1397" />
			<path
   class="st0"
   d="m 78.004,108.012 c 0.066,-0.039 0.133,-0.072 0.198,-0.112 -0.065,0.04 -0.132,0.074 -0.198,0.112 z"
   id="path1399" />
			<polygon
   class="st0"
   points="78.198,107.893 78.202,107.9 "
   id="polygon1401" />
			<polygon
   class="st0"
   points="77.936,108.05 77.934,108.051 77.935,108.051 "
   id="polygon1403" />
			<polygon
   class="st0"
   points="77.942,108.046 77.942,108.047 77.936,108.05 77.942,108.047 "
   id="polygon1405" />
			<path
   class="st0"
   d="M 77.682,107.036 77.166,106.18 62.976,82.625 c -0.287,0.173 -0.581,0.329 -0.874,0.487 -0.296,0.159 -0.594,0.308 -0.896,0.451 -2.726,1.293 -5.677,1.953 -8.632,1.953 -1.936,0 -3.871,-0.28 -5.742,-0.838 -0.319,-0.095 -0.63,-0.22 -0.945,-0.332 -0.315,-0.111 -0.634,-0.207 -0.944,-0.335 l -10.463,25.412 -0.41,0.996 -0.351,0.853 -0.002,0.004 c 0.027,0.011 0.055,0.02 0.082,0.031 0.029,0.012 0.057,0.021 0.086,0.033 h 0.001 c 10e-4,0 0.002,10e-4 0.002,10e-4 0.007,0.003 0.014,0.005 0.02,0.008 0.247,0.101 0.496,0.188 0.744,0.285 0.311,0.121 0.622,0.244 0.934,0.358 0.159,0.058 0.317,0.126 0.476,0.182 h 0.001 v 0 c 3.278,1.158 6.67,1.968 10.119,2.422 0.135,0.016 0.269,0.035 0.404,0.054 0.141,0.016 0.283,0.03 0.424,0.046 0.266,0.03 0.531,0.061 0.798,0.087 0.066,0.005 0.132,0.011 0.198,0.017 0.327,0.031 0.654,0.059 0.979,0.082 0.111,0.008 0.223,0.013 0.333,0.021 0.287,0.019 0.572,0.037 0.858,0.05 0.175,0.01 0.35,0.015 0.526,0.021 0.227,0.008 0.453,0.017 0.682,0.024 0.327,0.008 0.657,0.011 0.986,0.012 0.078,0 0.155,0.002 0.232,0.003 2.755,0 5.509,-0.229 8.233,-0.686 v 0 c 0.046,-0.007 0.091,-0.015 0.138,-0.021 0.288,-0.05 0.576,-0.104 0.864,-0.157 0.164,-0.032 0.329,-0.063 0.491,-0.095 0.168,-0.035 0.337,-0.07 0.505,-0.106 0.281,-0.059 0.561,-0.12 0.842,-0.185 0.05,-0.011 0.101,-0.021 0.152,-0.035 4.141,-0.965 8.14,-2.459 11.897,-4.436 l 10e-4,-0.001 v 0 c 0.246,-0.13 0.486,-0.278 0.731,-0.411 0.292,-0.16 0.582,-0.325 0.872,-0.491 0.201,-0.115 0.404,-0.221 0.603,-0.34 l 0.001,-0.001 c 0.002,-0.001 0.004,-0.003 0.006,-0.004 0,0 0,0 10e-4,0 v 0 c 0.003,-0.002 0.006,-0.003 0.009,-0.005 0.002,-0.001 0.003,-0.002 0.004,-0.003 l -0.037,-0.063 0.037,0.063 c 0.002,-0.001 0.004,-0.002 0.006,-0.003 0.003,-0.002 0.006,-0.003 0.009,-0.005 0.011,-0.007 0.022,-0.013 0.033,-0.02 0.065,-0.039 0.13,-0.078 0.195,-0.117 v 0 z"
   id="path1407-3" />
			<path
   class="st0"
   d="m 39.876,49.852 c 0.23,-0.186 0.462,-0.366 0.697,-0.54 L 40.521,49.225 25.32,23.99 c -0.706,0.461 -1.404,0.936 -2.085,1.436 -1.47,1.082 -2.893,2.257 -4.262,3.522 L 39.795,49.77 Z"
   id="path1409" />
			<path
   class="st1"
   d="m 17.53,30.334 c -0.237,0.237 -0.461,0.482 -0.692,0.722 -0.231,0.24 -0.466,0.479 -0.692,0.723 -1.538,1.665 -2.944,3.409 -4.212,5.22 -0.061,0.085 -0.122,0.174 -0.182,0.261 -0.143,0.208 -0.284,0.416 -0.423,0.625 -0.145,0.217 -0.289,0.437 -0.429,0.656 -0.053,0.08 -0.105,0.161 -0.156,0.241 -4.789,7.513 -7.355,16.034 -7.7,24.627 -0.013,0.333 -0.02,0.667 -0.027,1 C 3.011,64.742 3,65.076 3,65.409 h 29.488 c 0,-0.334 0.031,-0.666 0.048,-1 0.017,-0.334 0.022,-0.668 0.055,-1 0.381,-3.84 1.863,-7.589 4.447,-10.739 0.21,-0.256 0.447,-0.496 0.672,-0.743 0.224,-0.247 0.432,-0.504 0.671,-0.742 z"
   id="path1411" />
			<path
   class="st1"
   d="M 78.373,23.014 C 78.333,22.989 78.291,22.965 78.251,22.941 77.992,22.782 77.73,22.629 77.468,22.476 77.316,22.388 77.164,22.303 77.011,22.216 76.857,22.13 76.705,22.044 76.55,21.96 76.284,21.814 76.017,21.67 75.749,21.528 75.707,21.507 75.666,21.484 75.623,21.462 73.894,20.558 72.118,19.762 70.305,19.071 70.259,19.052 70.211,19.034 70.164,19.017 69.769,18.869 69.373,18.722 68.974,18.584 65.753,17.459 62.422,16.67 59.038,16.226 58.9,16.207 58.761,16.188 58.623,16.17 58.484,16.153 58.346,16.139 58.208,16.124 57.941,16.093 57.675,16.063 57.407,16.037 57.333,16.03 57.258,16.025 57.183,16.017 56.866,15.988 56.547,15.96 56.23,15.937 56.107,15.928 55.982,15.921 55.859,15.914 55.587,15.896 55.312,15.877 55.04,15.865 54.894,15.857 54.75,15.853 54.606,15.848 l -0.001,29.444 v 0.115 c 1.517,0.157 3.02,0.48 4.478,0.975 L 80.837,24.628 C 80.03,24.069 79.213,23.525 78.373,23.014 Z"
   id="path1413" />
			<polygon
   class="st2"
   points="27.013,22.924 27.529,23.781 "
   id="polygon1415" />
			<polygon
   class="st2"
   points="27.013,22.924 27.01,22.919 "
   id="polygon1417" />
			<path
   class="st2"
   d="m 51.606,15.825 c -0.333,0.007 -0.667,0.008 -1,0.021 -2.086,0.084 -4.168,0.297 -6.233,0.643 -0.045,0.008 -0.09,0.015 -0.136,0.023 -0.29,0.05 -0.577,0.103 -0.865,0.157 -0.163,0.031 -0.327,0.061 -0.49,0.094 -0.17,0.034 -0.339,0.069 -0.508,0.106 -0.28,0.058 -0.56,0.119 -0.84,0.184 v 0 c -0.051,0.011 -0.101,0.023 -0.153,0.034 -4.141,0.966 -8.142,2.461 -11.898,4.438 v 0 h -0.001 c -0.245,0.13 -0.484,0.277 -0.728,0.411 -0.292,0.16 -0.582,0.325 -0.872,0.491 -0.215,0.124 -0.434,0.238 -0.648,0.366 -0.002,0.001 -0.005,0.003 -0.007,0.004 h -0.001 c -0.015,0.009 -0.03,0.017 -0.045,0.026 -0.056,0.034 -0.114,0.062 -0.17,0.096 l 0.003,0.005 0.516,0.857 v 0 l 14.705,24.412 c 0.287,-0.173 0.581,-0.33 0.874,-0.487 0.295,-0.159 0.594,-0.308 0.895,-0.451 2.1,-1 4.332,-1.62 6.601,-1.85 0.333,-0.034 0.666,-0.062 1,-0.079 0.333,-0.017 0.666,-0.034 1,-0.034 l 0.001,-29.487 c -0.334,-10e-4 -0.667,0.013 -1,0.02 z"
   id="path1419" />
			<path
   class="st1"
   d="m 102.15,62.971 c -0.014,-0.265 -0.03,-0.529 -0.048,-0.795 -0.008,-0.132 -0.015,-0.263 -0.026,-0.397 -0.022,-0.311 -0.048,-0.623 -0.077,-0.934 -0.006,-0.081 -0.014,-0.161 -0.021,-0.242 -0.034,-0.348 -0.071,-0.696 -0.111,-1.043 -0.004,-0.028 -0.007,-0.056 -0.01,-0.084 -0.002,-0.013 -0.003,-0.027 -0.005,-0.04 -0.046,-0.375 -0.096,-0.75 -0.149,-1.124 -0.001,-0.011 -0.002,-0.025 -0.005,-0.035 -0.339,-2.351 -0.847,-4.681 -1.524,-6.972 -0.005,-0.016 -0.009,-0.03 -0.014,-0.044 -0.107,-0.356 -0.216,-0.71 -0.328,-1.063 -0.015,-0.046 -0.031,-0.093 -0.045,-0.14 -0.105,-0.319 -0.211,-0.636 -0.321,-0.954 -0.031,-0.085 -0.061,-0.171 -0.091,-0.258 -0.097,-0.275 -0.197,-0.549 -0.299,-0.823 -0.049,-0.131 -0.099,-0.261 -0.15,-0.391 C 98.84,47.405 98.751,47.178 98.661,46.954 98.589,46.774 98.517,46.597 98.443,46.42 98.371,46.244 98.297,46.07 98.223,45.894 98.126,45.67 98.028,45.446 97.929,45.223 97.873,45.098 97.817,44.971 97.759,44.845 97.637,44.579 97.512,44.313 97.386,44.048 97.347,43.968 97.309,43.886 97.27,43.806 97.123,43.503 96.974,43.2 96.822,42.9 96.8,42.859 96.779,42.817 96.757,42.775 96.587,42.444 96.413,42.112 96.236,41.785 96.229,41.774 96.224,41.761 96.217,41.75 95.358,40.17 94.415,38.642 93.395,37.172 L 71.632,58.931 c 0.495,1.459 0.817,2.961 0.974,4.477 h 0.116 29.444 c -0.005,-0.146 -0.009,-0.292 -0.016,-0.437 z"
   id="path1421" />
			<path
   class="st2"
   d="m 72.722,65.408 c 0,0.334 -0.031,0.666 -0.048,1 -0.016,0.334 -0.022,0.668 -0.055,1 -0.381,3.84 -1.863,7.59 -4.446,10.74 -0.21,0.256 -0.447,0.496 -0.672,0.743 -0.224,0.247 -0.432,0.504 -0.671,0.742 l 20.851,20.85 c 0.237,-0.237 0.46,-0.482 0.691,-0.723 0.231,-0.241 0.466,-0.479 0.691,-0.723 1.543,-1.671 2.953,-3.419 4.224,-5.236 0.051,-0.072 0.099,-0.143 0.148,-0.214 0.155,-0.223 0.306,-0.448 0.458,-0.673 0.133,-0.201 0.266,-0.402 0.395,-0.605 0.064,-0.097 0.128,-0.198 0.19,-0.295 4.782,-7.509 7.341,-16.021 7.685,-24.607 0.013,-0.333 0.02,-0.667 0.027,-1 0.007,-0.333 0.017,-0.666 0.017,-1 H 72.722 Z"
   id="path1423" />
		</g>
		<path
   class="st3"
   d="m 110.967,7.046 c -5.395,-5.395 -14.142,-5.395 -19.536,0 -4.304,4.303 -5.164,10.736 -2.601,15.902 L 58.739,53.04 c -5.166,-2.562 -11.599,-1.703 -15.903,2.6 -5.395,5.395 -5.394,14.142 0,19.537 5.396,5.395 14.143,5.393 19.538,-0.001 4.303,-4.303 5.162,-10.736 2.599,-15.903 L 95.064,29.182 c 5.167,2.562 11.599,1.703 15.902,-2.601 5.396,-5.393 5.396,-14.14 0.001,-19.535 z"
   id="path1427" />
	</g>
	<g
   id="g1445">
		<path
   class="st3"
   d="m 117.381,54.729 c 0,-14.783 10.811,-25.374 25.668,-25.374 14.782,0 25.594,10.591 25.594,25.374 0,14.782 -10.811,25.375 -25.594,25.375 -14.856,-0.001 -25.668,-10.593 -25.668,-25.375 z m 40.525,0 c 0,-9.194 -5.81,-16.107 -14.856,-16.107 -9.121,0 -14.931,6.913 -14.931,16.107 0,9.119 5.81,16.107 14.931,16.107 9.045,0 14.856,-6.988 14.856,-16.107 z"
   id="path1431" />
		<path
   class="st3"
   d="M 174.154,79.22 V 30.164 h 22.948 c 10.663,0 16.474,7.207 16.474,15.812 0,8.531 -5.885,15.74 -16.474,15.74 H 184.598 V 79.22 Z m 28.758,-33.244 c 0,-4.119 -3.162,-6.619 -7.282,-6.619 h -11.031 v 13.165 h 11.031 c 4.12,0 7.282,-2.5 7.282,-6.546 z"
   id="path1433" />
		<path
   class="st3"
   d="M 218.279,79.22 V 30.164 h 34.715 v 9.193 h -24.27 v 10.297 h 23.756 v 9.194 h -23.756 v 11.179 h 24.27 v 9.194 z"
   id="path1435" />
		<path
   class="st3"
   d="M 293.146,79.22 269.76,47.227 V 79.22 H 259.314 V 30.164 h 10.739 l 22.726,30.817 V 30.164 h 10.444 V 79.22 Z"
   id="path1437" />
		<path
   class="st3"
   d="m 347.424,79.22 -3.09,-8.311 H 323.3 l -3.089,8.311 H 308.37 l 18.902,-49.056 h 13.094 l 18.899,49.056 z m -13.607,-38.612 -7.648,21.108 h 15.299 z"
   id="path1439" />
		<path
   class="st3"
   d="M 361.981,79.22 V 30.164 h 22.947 c 10.663,0 16.474,7.207 16.474,15.812 0,8.531 -5.886,15.74 -16.474,15.74 H 372.424 V 79.22 Z m 28.758,-33.244 c 0,-4.119 -3.162,-6.619 -7.282,-6.619 h -11.032 v 13.165 h 11.032 c 4.119,0 7.282,-2.5 7.282,-6.546 z"
   id="path1441" />
		<path
   class="st3"
   d="M 406.106,79.22 V 30.164 h 10.445 V 79.22 Z"
   id="path1443" />
	</g>
	<g
   id="g1467">
		<path
   class="st2"
   d="M 240.558,110.779 V 94.427 h 2.869 v 16.352 z"
   id="path1447" />
		<path
   class="st2"
   d="m 265.293,110.779 -8.532,-11.695 v 11.695 h -2.869 V 94.427 h 2.942 l 8.361,11.326 V 94.427 h 2.867 v 16.352 z"
   id="path1449" />
		<path
   class="st2"
   d="M 278.529,110.779 V 94.427 h 2.869 v 16.352 z"
   id="path1451" />
		<path
   class="st2"
   d="M 295.762,110.779 V 96.951 h -4.953 v -2.525 h 12.773 v 2.525 h -4.951 v 13.827 z"
   id="path1453" />
		<path
   class="st2"
   d="M 312.994,110.779 V 94.427 h 2.869 v 16.352 z"
   id="path1455" />
		<path
   class="st2"
   d="m 337.804,110.779 -1.203,-3.163 H 329.1 l -1.202,3.163 h -3.261 l 6.424,-16.352 h 3.578 l 6.423,16.352 z m -4.953,-13.485 -2.943,7.796 h 5.884 z"
   id="path1457-6" />
		<path
   class="st2"
   d="M 352.118,110.779 V 96.951 h -4.953 v -2.525 h 12.774 v 2.525 h -4.952 v 13.827 z"
   id="path1459" />
		<path
   class="st2"
   d="M 369.351,110.779 V 94.427 h 2.869 v 16.352 z"
   id="path1461" />
		<path
   class="st2"
   d="m 387.419,110.779 -6.425,-16.352 h 3.261 l 4.953,13.214 4.953,-13.214 h 3.259 l -6.422,16.352 z"
   id="path1463" />
		<path
   class="st2"
   d="M 406.169,110.779 V 94.427 h 11.203 v 2.525 h -8.335 v 4.216 h 8.163 v 2.525 h -8.163 v 4.56 h 8.335 v 2.526 c 0,0 -11.203,0 -11.203,0 z"
   id="path1465" />
	</g>
</g></svg>
